ISO-10303-21;
HEADER;
/* Generated by software containing ST-Developer
 * from STEP Tools, Inc. (www.steptools.com) 
 */
/* OPTION: using custom renumber hook */

FILE_DESCRIPTION(
/* description */ ('STEP AP242 Edition 2',
'CAx-IF Rec.Pracs.---Representation and Presentation of Product Manufa
cturing Information (PMI)---4.0---2014-10-13',
'CAx-IF Rec.Pracs.---3D Tessellated Geometry---0.4---2014-09-14','2;1',
'CAx-IF Rec.Pracs.---User Defined Attributes---1.5---2016-08-15'),
/* implementation_level */ '2;1');

FILE_NAME(
/* name */ 'Part Studio 1',
/* time_stamp */ '2026-09-14T08:44:29Z',
/* author */ (''),
/* organization */ (''),
/* preprocessor_version */ 'ST-DEVELOPER v20',
/* originating_system */ 'ONSHAPE BY PTC INC, 1.220',
/* authorisation */ '  ');

FILE_SCHEMA (('AP242_MANAGED_MODEL_BASED_3D_ENGINEERING_MIM_LF { 1 0 10303 442 3 1 4 }'));
ENDSEC;

DATA;
#10=SHAPE_REPRESENTATION_RELATIONSHIP('','',#635,#11);
#11=ADVANCED_BREP_SHAPE_REPRESENTATION('',(#633),#993);
#12=CYLINDRICAL_SURFACE('',#663,0.0017);
#13=CYLINDRICAL_SURFACE('',#664,0.0017);
#14=CYLINDRICAL_SURFACE('',#665,0.0017);
#15=CYLINDRICAL_SURFACE('',#666,0.0017);
#16=LINE('',#835,#88);
#17=LINE('',#838,#89);
#18=LINE('',#840,#90);
#19=LINE('',#842,#91);
#20=LINE('',#843,#92);
#21=LINE('',#846,#93);
#22=LINE('',#848,#94);
#23=LINE('',#850,#95);
#24=LINE('',#851,#96);
#25=LINE('',#854,#97);
#26=LINE('',#856,#98);
#27=LINE('',#858,#99);
#28=LINE('',#859,#100);
#29=LINE('',#862,#101);
#30=LINE('',#864,#102);
#31=LINE('',#866,#103);
#32=LINE('',#867,#104);
#33=LINE('',#870,#105);
#34=LINE('',#872,#106);
#35=LINE('',#874,#107);
#36=LINE('',#875,#108);
#37=LINE('',#878,#109);
#38=LINE('',#880,#110);
#39=LINE('',#882,#111);
#40=LINE('',#884,#112);
#41=LINE('',#887,#113);
#42=LINE('',#889,#114);
#43=LINE('',#891,#115);
#44=LINE('',#900,#116);
#45=LINE('',#903,#117);
#46=LINE('',#905,#118);
#47=LINE('',#907,#119);
#48=LINE('',#908,#120);
#49=LINE('',#911,#121);
#50=LINE('',#913,#122);
#51=LINE('',#915,#123);
#52=LINE('',#916,#124);
#53=LINE('',#919,#125);
#54=LINE('',#921,#126);
#55=LINE('',#923,#127);
#56=LINE('',#924,#128);
#57=LINE('',#927,#129);
#58=LINE('',#929,#130);
#59=LINE('',#931,#131);
#60=LINE('',#932,#132);
#61=LINE('',#935,#133);
#62=LINE('',#937,#134);
#63=LINE('',#939,#135);
#64=LINE('',#941,#136);
#65=LINE('',#942,#137);
#66=LINE('',#944,#138);
#67=LINE('',#946,#139);
#68=LINE('',#949,#140);
#69=LINE('',#950,#141);
#70=LINE('',#952,#142);
#71=LINE('',#954,#143);
#72=LINE('',#957,#144);
#73=LINE('',#958,#145);
#74=LINE('',#960,#146);
#75=LINE('',#962,#147);
#76=LINE('',#965,#148);
#77=LINE('',#966,#149);
#78=LINE('',#968,#150);
#79=LINE('',#970,#151);
#80=LINE('',#977,#152);
#81=LINE('',#978,#153);
#82=LINE('',#980,#154);
#83=LINE('',#982,#155);
#84=LINE('',#985,#156);
#85=LINE('',#986,#157);
#86=LINE('',#988,#158);
#87=LINE('',#990,#159);
#88=VECTOR('',#687,1.);
#89=VECTOR('',#688,1.);
#90=VECTOR('',#689,1.);
#91=VECTOR('',#690,1.);
#92=VECTOR('',#691,1.);
#93=VECTOR('',#692,1.);
#94=VECTOR('',#693,1.);
#95=VECTOR('',#694,1.);
#96=VECTOR('',#695,1.);
#97=VECTOR('',#696,1.);
#98=VECTOR('',#697,1.);
#99=VECTOR('',#698,1.);
#100=VECTOR('',#699,1.);
#101=VECTOR('',#700,1.);
#102=VECTOR('',#701,1.);
#103=VECTOR('',#702,1.);
#104=VECTOR('',#703,1.);
#105=VECTOR('',#704,1.);
#106=VECTOR('',#705,1.);
#107=VECTOR('',#706,1.);
#108=VECTOR('',#707,1.);
#109=VECTOR('',#708,1.);
#110=VECTOR('',#709,1.);
#111=VECTOR('',#710,1.);
#112=VECTOR('',#713,1.);
#113=VECTOR('',#714,1.);
#114=VECTOR('',#715,1.);
#115=VECTOR('',#716,1.);
#116=VECTOR('',#725,1.);
#117=VECTOR('',#726,1.);
#118=VECTOR('',#727,1.);
#119=VECTOR('',#728,1.);
#120=VECTOR('',#729,1.);
#121=VECTOR('',#730,1.);
#122=VECTOR('',#731,1.);
#123=VECTOR('',#732,1.);
#124=VECTOR('',#733,1.);
#125=VECTOR('',#734,1.);
#126=VECTOR('',#735,1.);
#127=VECTOR('',#736,1.);
#128=VECTOR('',#737,1.);
#129=VECTOR('',#738,1.);
#130=VECTOR('',#739,1.);
#131=VECTOR('',#740,1.);
#132=VECTOR('',#741,1.);
#133=VECTOR('',#742,1.);
#134=VECTOR('',#743,1.);
#135=VECTOR('',#744,1.);
#136=VECTOR('',#747,1.);
#137=VECTOR('',#748,1.);
#138=VECTOR('',#751,1.);
#139=VECTOR('',#754,1.);
#140=VECTOR('',#759,1.);
#141=VECTOR('',#760,1.);
#142=VECTOR('',#763,1.);
#143=VECTOR('',#766,1.);
#144=VECTOR('',#771,1.);
#145=VECTOR('',#772,1.);
#146=VECTOR('',#775,1.);
#147=VECTOR('',#778,1.);
#148=VECTOR('',#783,1.);
#149=VECTOR('',#784,1.);
#150=VECTOR('',#787,1.);
#151=VECTOR('',#790,1.);
#152=VECTOR('',#803,1.);
#153=VECTOR('',#804,1.);
#154=VECTOR('',#807,1.);
#155=VECTOR('',#810,1.);
#156=VECTOR('',#815,1.);
#157=VECTOR('',#816,1.);
#158=VECTOR('',#819,1.);
#159=VECTOR('',#822,1.);
#160=ORIENTED_EDGE('',*,*,#320,.F.);
#161=ORIENTED_EDGE('',*,*,#321,.F.);
#162=ORIENTED_EDGE('',*,*,#322,.F.);
#163=ORIENTED_EDGE('',*,*,#323,.F.);
#164=ORIENTED_EDGE('',*,*,#324,.F.);
#165=ORIENTED_EDGE('',*,*,#325,.T.);
#166=ORIENTED_EDGE('',*,*,#326,.T.);
#167=ORIENTED_EDGE('',*,*,#327,.F.);
#168=ORIENTED_EDGE('',*,*,#328,.T.);
#169=ORIENTED_EDGE('',*,*,#329,.T.);
#170=ORIENTED_EDGE('',*,*,#330,.F.);
#171=ORIENTED_EDGE('',*,*,#331,.T.);
#172=ORIENTED_EDGE('',*,*,#332,.F.);
#173=ORIENTED_EDGE('',*,*,#333,.T.);
#174=ORIENTED_EDGE('',*,*,#334,.T.);
#175=ORIENTED_EDGE('',*,*,#335,.F.);
#176=ORIENTED_EDGE('',*,*,#336,.F.);
#177=ORIENTED_EDGE('',*,*,#337,.T.);
#178=ORIENTED_EDGE('',*,*,#338,.T.);
#179=ORIENTED_EDGE('',*,*,#339,.F.);
#180=ORIENTED_EDGE('',*,*,#340,.F.);
#181=ORIENTED_EDGE('',*,*,#341,.T.);
#182=ORIENTED_EDGE('',*,*,#342,.T.);
#183=ORIENTED_EDGE('',*,*,#343,.F.);
#184=ORIENTED_EDGE('',*,*,#344,.F.);
#185=ORIENTED_EDGE('',*,*,#345,.T.);
#186=ORIENTED_EDGE('',*,*,#346,.T.);
#187=ORIENTED_EDGE('',*,*,#347,.F.);
#188=ORIENTED_EDGE('',*,*,#348,.F.);
#189=ORIENTED_EDGE('',*,*,#349,.T.);
#190=ORIENTED_EDGE('',*,*,#350,.T.);
#191=ORIENTED_EDGE('',*,*,#351,.F.);
#192=ORIENTED_EDGE('',*,*,#352,.T.);
#193=ORIENTED_EDGE('',*,*,#353,.T.);
#194=ORIENTED_EDGE('',*,*,#354,.T.);
#195=ORIENTED_EDGE('',*,*,#355,.T.);
#196=ORIENTED_EDGE('',*,*,#356,.F.);
#197=ORIENTED_EDGE('',*,*,#357,.T.);
#198=ORIENTED_EDGE('',*,*,#358,.T.);
#199=ORIENTED_EDGE('',*,*,#359,.F.);
#200=ORIENTED_EDGE('',*,*,#360,.T.);
#201=ORIENTED_EDGE('',*,*,#361,.T.);
#202=ORIENTED_EDGE('',*,*,#362,.F.);
#203=ORIENTED_EDGE('',*,*,#363,.F.);
#204=ORIENTED_EDGE('',*,*,#364,.F.);
#205=ORIENTED_EDGE('',*,*,#365,.F.);
#206=ORIENTED_EDGE('',*,*,#366,.F.);
#207=ORIENTED_EDGE('',*,*,#367,.T.);
#208=ORIENTED_EDGE('',*,*,#368,.F.);
#209=ORIENTED_EDGE('',*,*,#369,.T.);
#210=ORIENTED_EDGE('',*,*,#370,.T.);
#211=ORIENTED_EDGE('',*,*,#371,.F.);
#212=ORIENTED_EDGE('',*,*,#372,.F.);
#213=ORIENTED_EDGE('',*,*,#373,.T.);
#214=ORIENTED_EDGE('',*,*,#374,.T.);
#215=ORIENTED_EDGE('',*,*,#375,.F.);
#216=ORIENTED_EDGE('',*,*,#360,.F.);
#217=ORIENTED_EDGE('',*,*,#376,.F.);
#218=ORIENTED_EDGE('',*,*,#324,.T.);
#219=ORIENTED_EDGE('',*,*,#377,.T.);
#220=ORIENTED_EDGE('',*,*,#363,.T.);
#221=ORIENTED_EDGE('',*,*,#378,.F.);
#222=ORIENTED_EDGE('',*,*,#325,.F.);
#223=ORIENTED_EDGE('',*,*,#376,.T.);
#224=ORIENTED_EDGE('',*,*,#362,.T.);
#225=ORIENTED_EDGE('',*,*,#379,.F.);
#226=ORIENTED_EDGE('',*,*,#326,.F.);
#227=ORIENTED_EDGE('',*,*,#378,.T.);
#228=ORIENTED_EDGE('',*,*,#361,.F.);
#229=ORIENTED_EDGE('',*,*,#377,.F.);
#230=ORIENTED_EDGE('',*,*,#327,.T.);
#231=ORIENTED_EDGE('',*,*,#379,.T.);
#232=ORIENTED_EDGE('',*,*,#364,.T.);
#233=ORIENTED_EDGE('',*,*,#380,.T.);
#234=ORIENTED_EDGE('',*,*,#329,.F.);
#235=ORIENTED_EDGE('',*,*,#381,.F.);
#236=ORIENTED_EDGE('',*,*,#365,.T.);
#237=ORIENTED_EDGE('',*,*,#381,.T.);
#238=ORIENTED_EDGE('',*,*,#328,.F.);
#239=ORIENTED_EDGE('',*,*,#382,.F.);
#240=ORIENTED_EDGE('',*,*,#366,.T.);
#241=ORIENTED_EDGE('',*,*,#382,.T.);
#242=ORIENTED_EDGE('',*,*,#331,.F.);
#243=ORIENTED_EDGE('',*,*,#383,.F.);
#244=ORIENTED_EDGE('',*,*,#383,.T.);
#245=ORIENTED_EDGE('',*,*,#330,.T.);
#246=ORIENTED_EDGE('',*,*,#380,.F.);
#247=ORIENTED_EDGE('',*,*,#367,.F.);
#248=ORIENTED_EDGE('',*,*,#356,.T.);
#249=ORIENTED_EDGE('',*,*,#384,.T.);
#250=ORIENTED_EDGE('',*,*,#333,.F.);
#251=ORIENTED_EDGE('',*,*,#385,.F.);
#252=ORIENTED_EDGE('',*,*,#385,.T.);
#253=ORIENTED_EDGE('',*,*,#332,.T.);
#254=ORIENTED_EDGE('',*,*,#386,.F.);
#255=ORIENTED_EDGE('',*,*,#357,.F.);
#256=ORIENTED_EDGE('',*,*,#386,.T.);
#257=ORIENTED_EDGE('',*,*,#335,.T.);
#258=ORIENTED_EDGE('',*,*,#387,.F.);
#259=ORIENTED_EDGE('',*,*,#358,.F.);
#260=ORIENTED_EDGE('',*,*,#359,.T.);
#261=ORIENTED_EDGE('',*,*,#387,.T.);
#262=ORIENTED_EDGE('',*,*,#334,.F.);
#263=ORIENTED_EDGE('',*,*,#384,.F.);
#264=ORIENTED_EDGE('',*,*,#368,.T.);
#265=ORIENTED_EDGE('',*,*,#388,.T.);
#266=ORIENTED_EDGE('',*,*,#337,.F.);
#267=ORIENTED_EDGE('',*,*,#389,.F.);
#268=ORIENTED_EDGE('',*,*,#389,.T.);
#269=ORIENTED_EDGE('',*,*,#336,.T.);
#270=ORIENTED_EDGE('',*,*,#390,.F.);
#271=ORIENTED_EDGE('',*,*,#369,.F.);
#272=ORIENTED_EDGE('',*,*,#390,.T.);
#273=ORIENTED_EDGE('',*,*,#339,.T.);
#274=ORIENTED_EDGE('',*,*,#391,.F.);
#275=ORIENTED_EDGE('',*,*,#370,.F.);
#276=ORIENTED_EDGE('',*,*,#371,.T.);
#277=ORIENTED_EDGE('',*,*,#391,.T.);
#278=ORIENTED_EDGE('',*,*,#338,.F.);
#279=ORIENTED_EDGE('',*,*,#388,.F.);
#280=ORIENTED_EDGE('',*,*,#323,.T.);
#281=ORIENTED_EDGE('',*,*,#355,.F.);
#282=ORIENTED_EDGE('',*,*,#322,.T.);
#283=ORIENTED_EDGE('',*,*,#354,.F.);
#284=ORIENTED_EDGE('',*,*,#321,.T.);
#285=ORIENTED_EDGE('',*,*,#353,.F.);
#286=ORIENTED_EDGE('',*,*,#320,.T.);
#287=ORIENTED_EDGE('',*,*,#352,.F.);
#288=ORIENTED_EDGE('',*,*,#348,.T.);
#289=ORIENTED_EDGE('',*,*,#392,.T.);
#290=ORIENTED_EDGE('',*,*,#341,.F.);
#291=ORIENTED_EDGE('',*,*,#393,.F.);
#292=ORIENTED_EDGE('',*,*,#393,.T.);
#293=ORIENTED_EDGE('',*,*,#340,.T.);
#294=ORIENTED_EDGE('',*,*,#394,.F.);
#295=ORIENTED_EDGE('',*,*,#349,.F.);
#296=ORIENTED_EDGE('',*,*,#394,.T.);
#297=ORIENTED_EDGE('',*,*,#343,.T.);
#298=ORIENTED_EDGE('',*,*,#395,.F.);
#299=ORIENTED_EDGE('',*,*,#350,.F.);
#300=ORIENTED_EDGE('',*,*,#351,.T.);
#301=ORIENTED_EDGE('',*,*,#395,.T.);
#302=ORIENTED_EDGE('',*,*,#342,.F.);
#303=ORIENTED_EDGE('',*,*,#392,.F.);
#304=ORIENTED_EDGE('',*,*,#372,.T.);
#305=ORIENTED_EDGE('',*,*,#396,.T.);
#306=ORIENTED_EDGE('',*,*,#345,.F.);
#307=ORIENTED_EDGE('',*,*,#397,.F.);
#308=ORIENTED_EDGE('',*,*,#397,.T.);
#309=ORIENTED_EDGE('',*,*,#344,.T.);
#310=ORIENTED_EDGE('',*,*,#398,.F.);
#311=ORIENTED_EDGE('',*,*,#373,.F.);
#312=ORIENTED_EDGE('',*,*,#398,.T.);
#313=ORIENTED_EDGE('',*,*,#347,.T.);
#314=ORIENTED_EDGE('',*,*,#399,.F.);
#315=ORIENTED_EDGE('',*,*,#374,.F.);
#316=ORIENTED_EDGE('',*,*,#375,.T.);
#317=ORIENTED_EDGE('',*,*,#399,.T.);
#318=ORIENTED_EDGE('',*,*,#346,.F.);
#319=ORIENTED_EDGE('',*,*,#396,.F.);
#320=EDGE_CURVE('',#400,#400,#456,.T.);
#321=EDGE_CURVE('',#401,#401,#457,.T.);
#322=EDGE_CURVE('',#402,#402,#458,.T.);
#323=EDGE_CURVE('',#403,#403,#459,.T.);
#324=EDGE_CURVE('',#404,#405,#16,.T.);
#325=EDGE_CURVE('',#404,#406,#17,.T.);
#326=EDGE_CURVE('',#406,#407,#18,.T.);
#327=EDGE_CURVE('',#405,#407,#19,.T.);
#328=EDGE_CURVE('',#408,#409,#20,.T.);
#329=EDGE_CURVE('',#409,#410,#21,.T.);
#330=EDGE_CURVE('',#411,#410,#22,.T.);
#331=EDGE_CURVE('',#411,#408,#23,.T.);
#332=EDGE_CURVE('',#412,#413,#24,.T.);
#333=EDGE_CURVE('',#412,#414,#25,.T.);
#334=EDGE_CURVE('',#414,#415,#26,.T.);
#335=EDGE_CURVE('',#413,#415,#27,.T.);
#336=EDGE_CURVE('',#416,#417,#28,.T.);
#337=EDGE_CURVE('',#416,#418,#29,.T.);
#338=EDGE_CURVE('',#418,#419,#30,.T.);
#339=EDGE_CURVE('',#417,#419,#31,.T.);
#340=EDGE_CURVE('',#420,#421,#32,.T.);
#341=EDGE_CURVE('',#420,#422,#33,.T.);
#342=EDGE_CURVE('',#422,#423,#34,.T.);
#343=EDGE_CURVE('',#421,#423,#35,.T.);
#344=EDGE_CURVE('',#424,#425,#36,.T.);
#345=EDGE_CURVE('',#424,#426,#37,.T.);
#346=EDGE_CURVE('',#426,#427,#38,.T.);
#347=EDGE_CURVE('',#425,#427,#39,.T.);
#348=EDGE_CURVE('',#428,#429,#40,.T.);
#349=EDGE_CURVE('',#428,#430,#41,.T.);
#350=EDGE_CURVE('',#430,#431,#42,.T.);
#351=EDGE_CURVE('',#429,#431,#43,.T.);
#352=EDGE_CURVE('',#432,#432,#460,.T.);
#353=EDGE_CURVE('',#433,#433,#461,.T.);
#354=EDGE_CURVE('',#434,#434,#462,.T.);
#355=EDGE_CURVE('',#435,#435,#463,.T.);
#356=EDGE_CURVE('',#436,#437,#44,.T.);
#357=EDGE_CURVE('',#436,#438,#45,.T.);
#358=EDGE_CURVE('',#438,#439,#46,.T.);
#359=EDGE_CURVE('',#437,#439,#47,.T.);
#360=EDGE_CURVE('',#440,#441,#48,.T.);
#361=EDGE_CURVE('',#441,#442,#49,.T.);
#362=EDGE_CURVE('',#443,#442,#50,.T.);
#363=EDGE_CURVE('',#440,#443,#51,.T.);
#364=EDGE_CURVE('',#444,#445,#52,.T.);
#365=EDGE_CURVE('',#446,#444,#53,.T.);
#366=EDGE_CURVE('',#447,#446,#54,.T.);
#367=EDGE_CURVE('',#447,#445,#55,.T.);
#368=EDGE_CURVE('',#448,#449,#56,.T.);
#369=EDGE_CURVE('',#448,#450,#57,.T.);
#370=EDGE_CURVE('',#450,#451,#58,.T.);
#371=EDGE_CURVE('',#449,#451,#59,.T.);
#372=EDGE_CURVE('',#452,#453,#60,.T.);
#373=EDGE_CURVE('',#452,#454,#61,.T.);
#374=EDGE_CURVE('',#454,#455,#62,.T.);
#375=EDGE_CURVE('',#453,#455,#63,.T.);
#376=EDGE_CURVE('',#404,#440,#64,.T.);
#377=EDGE_CURVE('',#405,#441,#65,.T.);
#378=EDGE_CURVE('',#406,#443,#66,.T.);
#379=EDGE_CURVE('',#407,#442,#67,.T.);
#380=EDGE_CURVE('',#445,#410,#68,.T.);
#381=EDGE_CURVE('',#444,#409,#69,.T.);
#382=EDGE_CURVE('',#446,#408,#70,.T.);
#383=EDGE_CURVE('',#447,#411,#71,.T.);
#384=EDGE_CURVE('',#437,#414,#72,.T.);
#385=EDGE_CURVE('',#436,#412,#73,.T.);
#386=EDGE_CURVE('',#438,#413,#74,.T.);
#387=EDGE_CURVE('',#439,#415,#75,.T.);
#388=EDGE_CURVE('',#449,#418,#76,.T.);
#389=EDGE_CURVE('',#448,#416,#77,.T.);
#390=EDGE_CURVE('',#450,#417,#78,.T.);
#391=EDGE_CURVE('',#451,#419,#79,.T.);
#392=EDGE_CURVE('',#429,#422,#80,.T.);
#393=EDGE_CURVE('',#428,#420,#81,.T.);
#394=EDGE_CURVE('',#430,#421,#82,.T.);
#395=EDGE_CURVE('',#431,#423,#83,.T.);
#396=EDGE_CURVE('',#453,#426,#84,.T.);
#397=EDGE_CURVE('',#452,#424,#85,.T.);
#398=EDGE_CURVE('',#454,#425,#86,.T.);
#399=EDGE_CURVE('',#455,#427,#87,.T.);
#400=VERTEX_POINT('',#828);
#401=VERTEX_POINT('',#830);
#402=VERTEX_POINT('',#832);
#403=VERTEX_POINT('',#834);
#404=VERTEX_POINT('',#836);
#405=VERTEX_POINT('',#837);
#406=VERTEX_POINT('',#839);
#407=VERTEX_POINT('',#841);
#408=VERTEX_POINT('',#844);
#409=VERTEX_POINT('',#845);
#410=VERTEX_POINT('',#847);
#411=VERTEX_POINT('',#849);
#412=VERTEX_POINT('',#852);
#413=VERTEX_POINT('',#853);
#414=VERTEX_POINT('',#855);
#415=VERTEX_POINT('',#857);
#416=VERTEX_POINT('',#860);
#417=VERTEX_POINT('',#861);
#418=VERTEX_POINT('',#863);
#419=VERTEX_POINT('',#865);
#420=VERTEX_POINT('',#868);
#421=VERTEX_POINT('',#869);
#422=VERTEX_POINT('',#871);
#423=VERTEX_POINT('',#873);
#424=VERTEX_POINT('',#876);
#425=VERTEX_POINT('',#877);
#426=VERTEX_POINT('',#879);
#427=VERTEX_POINT('',#881);
#428=VERTEX_POINT('',#885);
#429=VERTEX_POINT('',#886);
#430=VERTEX_POINT('',#888);
#431=VERTEX_POINT('',#890);
#432=VERTEX_POINT('',#893);
#433=VERTEX_POINT('',#895);
#434=VERTEX_POINT('',#897);
#435=VERTEX_POINT('',#899);
#436=VERTEX_POINT('',#901);
#437=VERTEX_POINT('',#902);
#438=VERTEX_POINT('',#904);
#439=VERTEX_POINT('',#906);
#440=VERTEX_POINT('',#909);
#441=VERTEX_POINT('',#910);
#442=VERTEX_POINT('',#912);
#443=VERTEX_POINT('',#914);
#444=VERTEX_POINT('',#917);
#445=VERTEX_POINT('',#918);
#446=VERTEX_POINT('',#920);
#447=VERTEX_POINT('',#922);
#448=VERTEX_POINT('',#925);
#449=VERTEX_POINT('',#926);
#450=VERTEX_POINT('',#928);
#451=VERTEX_POINT('',#930);
#452=VERTEX_POINT('',#933);
#453=VERTEX_POINT('',#934);
#454=VERTEX_POINT('',#936);
#455=VERTEX_POINT('',#938);
#456=CIRCLE('',#638,0.0017);
#457=CIRCLE('',#639,0.0017);
#458=CIRCLE('',#640,0.0017);
#459=CIRCLE('',#641,0.0017);
#460=CIRCLE('',#643,0.0017);
#461=CIRCLE('',#644,0.0017);
#462=CIRCLE('',#645,0.0017);
#463=CIRCLE('',#646,0.0017);
#464=EDGE_LOOP('',(#160));
#465=EDGE_LOOP('',(#161));
#466=EDGE_LOOP('',(#162));
#467=EDGE_LOOP('',(#163));
#468=EDGE_LOOP('',(#164,#165,#166,#167));
#469=EDGE_LOOP('',(#168,#169,#170,#171));
#470=EDGE_LOOP('',(#172,#173,#174,#175));
#471=EDGE_LOOP('',(#176,#177,#178,#179));
#472=EDGE_LOOP('',(#180,#181,#182,#183));
#473=EDGE_LOOP('',(#184,#185,#186,#187));
#474=EDGE_LOOP('',(#188,#189,#190,#191));
#475=EDGE_LOOP('',(#192));
#476=EDGE_LOOP('',(#193));
#477=EDGE_LOOP('',(#194));
#478=EDGE_LOOP('',(#195));
#479=EDGE_LOOP('',(#196,#197,#198,#199));
#480=EDGE_LOOP('',(#200,#201,#202,#203));
#481=EDGE_LOOP('',(#204,#205,#206,#207));
#482=EDGE_LOOP('',(#208,#209,#210,#211));
#483=EDGE_LOOP('',(#212,#213,#214,#215));
#484=EDGE_LOOP('',(#216,#217,#218,#219));
#485=EDGE_LOOP('',(#220,#221,#222,#223));
#486=EDGE_LOOP('',(#224,#225,#226,#227));
#487=EDGE_LOOP('',(#228,#229,#230,#231));
#488=EDGE_LOOP('',(#232,#233,#234,#235));
#489=EDGE_LOOP('',(#236,#237,#238,#239));
#490=EDGE_LOOP('',(#240,#241,#242,#243));
#491=EDGE_LOOP('',(#244,#245,#246,#247));
#492=EDGE_LOOP('',(#248,#249,#250,#251));
#493=EDGE_LOOP('',(#252,#253,#254,#255));
#494=EDGE_LOOP('',(#256,#257,#258,#259));
#495=EDGE_LOOP('',(#260,#261,#262,#263));
#496=EDGE_LOOP('',(#264,#265,#266,#267));
#497=EDGE_LOOP('',(#268,#269,#270,#271));
#498=EDGE_LOOP('',(#272,#273,#274,#275));
#499=EDGE_LOOP('',(#276,#277,#278,#279));
#500=EDGE_LOOP('',(#280));
#501=EDGE_LOOP('',(#281));
#502=EDGE_LOOP('',(#282));
#503=EDGE_LOOP('',(#283));
#504=EDGE_LOOP('',(#284));
#505=EDGE_LOOP('',(#285));
#506=EDGE_LOOP('',(#286));
#507=EDGE_LOOP('',(#287));
#508=EDGE_LOOP('',(#288,#289,#290,#291));
#509=EDGE_LOOP('',(#292,#293,#294,#295));
#510=EDGE_LOOP('',(#296,#297,#298,#299));
#511=EDGE_LOOP('',(#300,#301,#302,#303));
#512=EDGE_LOOP('',(#304,#305,#306,#307));
#513=EDGE_LOOP('',(#308,#309,#310,#311));
#514=EDGE_LOOP('',(#312,#313,#314,#315));
#515=EDGE_LOOP('',(#316,#317,#318,#319));
#516=FACE_BOUND('',#464,.T.);
#517=FACE_BOUND('',#465,.T.);
#518=FACE_BOUND('',#466,.T.);
#519=FACE_BOUND('',#467,.T.);
#520=FACE_BOUND('',#468,.T.);
#521=FACE_BOUND('',#469,.T.);
#522=FACE_BOUND('',#470,.T.);
#523=FACE_BOUND('',#471,.T.);
#524=FACE_BOUND('',#472,.T.);
#525=FACE_BOUND('',#473,.T.);
#526=FACE_BOUND('',#474,.T.);
#527=FACE_BOUND('',#475,.T.);
#528=FACE_BOUND('',#476,.T.);
#529=FACE_BOUND('',#477,.T.);
#530=FACE_BOUND('',#478,.T.);
#531=FACE_BOUND('',#479,.T.);
#532=FACE_BOUND('',#480,.T.);
#533=FACE_BOUND('',#481,.T.);
#534=FACE_BOUND('',#482,.T.);
#535=FACE_BOUND('',#483,.T.);
#536=FACE_BOUND('',#484,.T.);
#537=FACE_BOUND('',#485,.T.);
#538=FACE_BOUND('',#486,.T.);
#539=FACE_BOUND('',#487,.T.);
#540=FACE_BOUND('',#488,.T.);
#541=FACE_BOUND('',#489,.T.);
#542=FACE_BOUND('',#490,.T.);
#543=FACE_BOUND('',#491,.T.);
#544=FACE_BOUND('',#492,.T.);
#545=FACE_BOUND('',#493,.T.);
#546=FACE_BOUND('',#494,.T.);
#547=FACE_BOUND('',#495,.T.);
#548=FACE_BOUND('',#496,.T.);
#549=FACE_BOUND('',#497,.T.);
#550=FACE_BOUND('',#498,.T.);
#551=FACE_BOUND('',#499,.T.);
#552=FACE_BOUND('',#500,.T.);
#553=FACE_BOUND('',#501,.T.);
#554=FACE_BOUND('',#502,.T.);
#555=FACE_BOUND('',#503,.T.);
#556=FACE_BOUND('',#504,.T.);
#557=FACE_BOUND('',#505,.T.);
#558=FACE_BOUND('',#506,.T.);
#559=FACE_BOUND('',#507,.T.);
#560=FACE_BOUND('',#508,.T.);
#561=FACE_BOUND('',#509,.T.);
#562=FACE_BOUND('',#510,.T.);
#563=FACE_BOUND('',#511,.T.);
#564=FACE_BOUND('',#512,.T.);
#565=FACE_BOUND('',#513,.T.);
#566=FACE_BOUND('',#514,.T.);
#567=FACE_BOUND('',#515,.T.);
#568=PLANE('',#637);
#569=PLANE('',#642);
#570=PLANE('',#647);
#571=PLANE('',#648);
#572=PLANE('',#649);
#573=PLANE('',#650);
#574=PLANE('',#651);
#575=PLANE('',#652);
#576=PLANE('',#653);
#577=PLANE('',#654);
#578=PLANE('',#655);
#579=PLANE('',#656);
#580=PLANE('',#657);
#581=PLANE('',#658);
#582=PLANE('',#659);
#583=PLANE('',#660);
#584=PLANE('',#661);
#585=PLANE('',#662);
#586=PLANE('',#667);
#587=PLANE('',#668);
#588=PLANE('',#669);
#589=PLANE('',#670);
#590=PLANE('',#671);
#591=PLANE('',#672);
#592=PLANE('',#673);
#593=PLANE('',#674);
#594=ADVANCED_FACE('',(#516,#517,#518,#519,#520,#521,#522,#523,#524,#525),
#568,.T.);
#595=ADVANCED_FACE('',(#526,#527,#528,#529,#530,#531,#532,#533,#534,#535),
#569,.F.);
#596=ADVANCED_FACE('',(#536),#570,.T.);
#597=ADVANCED_FACE('',(#537),#571,.F.);
#598=ADVANCED_FACE('',(#538),#572,.F.);
#599=ADVANCED_FACE('',(#539),#573,.T.);
#600=ADVANCED_FACE('',(#540),#574,.T.);
#601=ADVANCED_FACE('',(#541),#575,.T.);
#602=ADVANCED_FACE('',(#542),#576,.T.);
#603=ADVANCED_FACE('',(#543),#577,.F.);
#604=ADVANCED_FACE('',(#544),#578,.T.);
#605=ADVANCED_FACE('',(#545),#579,.F.);
#606=ADVANCED_FACE('',(#546),#580,.F.);
#607=ADVANCED_FACE('',(#547),#581,.T.);
#608=ADVANCED_FACE('',(#548),#582,.T.);
#609=ADVANCED_FACE('',(#549),#583,.F.);
#610=ADVANCED_FACE('',(#550),#584,.F.);
#611=ADVANCED_FACE('',(#551),#585,.T.);
#612=ADVANCED_FACE('',(#552,#553),#12,.F.);
#613=ADVANCED_FACE('',(#554,#555),#13,.F.);
#614=ADVANCED_FACE('',(#556,#557),#14,.F.);
#615=ADVANCED_FACE('',(#558,#559),#15,.F.);
#616=ADVANCED_FACE('',(#560),#586,.T.);
#617=ADVANCED_FACE('',(#561),#587,.F.);
#618=ADVANCED_FACE('',(#562),#588,.F.);
#619=ADVANCED_FACE('',(#563),#589,.T.);
#620=ADVANCED_FACE('',(#564),#590,.T.);
#621=ADVANCED_FACE('',(#565),#591,.F.);
#622=ADVANCED_FACE('',(#566),#592,.F.);
#623=ADVANCED_FACE('',(#567),#593,.T.);
#624=CLOSED_SHELL('',(#594,#595,#596,#597,#598,#599,#600,#601,#602,#603,
#604,#605,#606,#607,#608,#609,#610,#611,#612,#613,#614,#615,#616,#617,#618,
#619,#620,#621,#622,#623));
#625=STYLED_ITEM('',(#626),#633);
#626=PRESENTATION_STYLE_ASSIGNMENT((#627));
#627=SURFACE_STYLE_USAGE(.BOTH.,#628);
#628=SURFACE_SIDE_STYLE('',(#629));
#629=SURFACE_STYLE_FILL_AREA(#630);
#630=FILL_AREA_STYLE('',(#631));
#631=FILL_AREA_STYLE_COLOUR('',#632);
#632=COLOUR_RGB('',0.615686274509804,0.811764705882353,0.929411764705882);
#633=MANIFOLD_SOLID_BREP('Part 1',#624);
#634=SHAPE_DEFINITION_REPRESENTATION(#998,#635);
#635=SHAPE_REPRESENTATION('Part 1',(#636),#993);
#636=AXIS2_PLACEMENT_3D('',#825,#675,#676);
#637=AXIS2_PLACEMENT_3D('',#826,#677,#678);
#638=AXIS2_PLACEMENT_3D('',#827,#679,#680);
#639=AXIS2_PLACEMENT_3D('',#829,#681,#682);
#640=AXIS2_PLACEMENT_3D('',#831,#683,#684);
#641=AXIS2_PLACEMENT_3D('',#833,#685,#686);
#642=AXIS2_PLACEMENT_3D('',#883,#711,#712);
#643=AXIS2_PLACEMENT_3D('',#892,#717,#718);
#644=AXIS2_PLACEMENT_3D('',#894,#719,#720);
#645=AXIS2_PLACEMENT_3D('',#896,#721,#722);
#646=AXIS2_PLACEMENT_3D('',#898,#723,#724);
#647=AXIS2_PLACEMENT_3D('',#940,#745,#746);
#648=AXIS2_PLACEMENT_3D('',#943,#749,#750);
#649=AXIS2_PLACEMENT_3D('',#945,#752,#753);
#650=AXIS2_PLACEMENT_3D('',#947,#755,#756);
#651=AXIS2_PLACEMENT_3D('',#948,#757,#758);
#652=AXIS2_PLACEMENT_3D('',#951,#761,#762);
#653=AXIS2_PLACEMENT_3D('',#953,#764,#765);
#654=AXIS2_PLACEMENT_3D('',#955,#767,#768);
#655=AXIS2_PLACEMENT_3D('',#956,#769,#770);
#656=AXIS2_PLACEMENT_3D('',#959,#773,#774);
#657=AXIS2_PLACEMENT_3D('',#961,#776,#777);
#658=AXIS2_PLACEMENT_3D('',#963,#779,#780);
#659=AXIS2_PLACEMENT_3D('',#964,#781,#782);
#660=AXIS2_PLACEMENT_3D('',#967,#785,#786);
#661=AXIS2_PLACEMENT_3D('',#969,#788,#789);
#662=AXIS2_PLACEMENT_3D('',#971,#791,#792);
#663=AXIS2_PLACEMENT_3D('',#972,#793,#794);
#664=AXIS2_PLACEMENT_3D('',#973,#795,#796);
#665=AXIS2_PLACEMENT_3D('',#974,#797,#798);
#666=AXIS2_PLACEMENT_3D('',#975,#799,#800);
#667=AXIS2_PLACEMENT_3D('',#976,#801,#802);
#668=AXIS2_PLACEMENT_3D('',#979,#805,#806);
#669=AXIS2_PLACEMENT_3D('',#981,#808,#809);
#670=AXIS2_PLACEMENT_3D('',#983,#811,#812);
#671=AXIS2_PLACEMENT_3D('',#984,#813,#814);
#672=AXIS2_PLACEMENT_3D('',#987,#817,#818);
#673=AXIS2_PLACEMENT_3D('',#989,#820,#821);
#674=AXIS2_PLACEMENT_3D('',#991,#823,#824);
#675=DIRECTION('',(0.,0.,1.));
#676=DIRECTION('',(1.,0.,0.));
#677=DIRECTION('',(0.,0.,1.));
#678=DIRECTION('',(1.,0.,0.));
#679=DIRECTION('',(0.,0.,1.));
#680=DIRECTION('',(1.,0.,0.));
#681=DIRECTION('',(0.,0.,1.));
#682=DIRECTION('',(1.,0.,0.));
#683=DIRECTION('',(0.,0.,1.));
#684=DIRECTION('',(1.,0.,0.));
#685=DIRECTION('',(0.,0.,1.));
#686=DIRECTION('',(1.,0.,0.));
#687=DIRECTION('',(1.,0.,0.));
#688=DIRECTION('',(-2.56996070515082E-16,-1.,0.));
#689=DIRECTION('',(1.,0.,0.));
#690=DIRECTION('',(-2.56996070515082E-16,-1.,0.));
#691=DIRECTION('',(-2.58913951638329E-16,-1.,0.));
#692=DIRECTION('',(-1.,0.,0.));
#693=DIRECTION('',(0.,-1.,0.));
#694=DIRECTION('',(1.,0.,0.));
#695=DIRECTION('',(-2.47817639425258E-16,-1.,0.));
#696=DIRECTION('',(1.,0.,0.));
#697=DIRECTION('',(-1.23908819712629E-16,-1.,0.));
#698=DIRECTION('',(1.,0.,0.));
#699=DIRECTION('',(0.,-1.,0.));
#700=DIRECTION('',(1.,0.,0.));
#701=DIRECTION('',(-2.47817639425258E-16,-1.,0.));
#702=DIRECTION('',(1.,0.,0.));
#703=DIRECTION('',(-2.47817639425258E-16,-1.,0.));
#704=DIRECTION('',(1.,0.,0.));
#705=DIRECTION('',(-1.23908819712629E-16,-1.,0.));
#706=DIRECTION('',(1.,0.,0.));
#707=DIRECTION('',(-1.,0.,0.));
#708=DIRECTION('',(0.,-1.,0.));
#709=DIRECTION('',(-1.,-1.19636101791504E-16,0.));
#710=DIRECTION('',(3.08395284618099E-16,-1.,0.));
#711=DIRECTION('',(0.,0.,1.));
#712=DIRECTION('',(1.,0.,0.));
#713=DIRECTION('',(1.,0.,0.));
#714=DIRECTION('',(-2.47817639425259E-16,-1.,0.));
#715=DIRECTION('',(1.,0.,0.));
#716=DIRECTION('',(-1.23908819712629E-16,-1.,0.));
#717=DIRECTION('',(0.,0.,1.));
#718=DIRECTION('',(1.,0.,0.));
#719=DIRECTION('',(0.,0.,1.));
#720=DIRECTION('',(1.,0.,0.));
#721=DIRECTION('',(0.,0.,1.));
#722=DIRECTION('',(1.,0.,0.));
#723=DIRECTION('',(0.,0.,1.));
#724=DIRECTION('',(1.,0.,0.));
#725=DIRECTION('',(1.,0.,0.));
#726=DIRECTION('',(-2.47817639425259E-16,-1.,0.));
#727=DIRECTION('',(1.,0.,0.));
#728=DIRECTION('',(-1.23908819712629E-16,-1.,0.));
#729=DIRECTION('',(1.,0.,0.));
#730=DIRECTION('',(-2.56996070515082E-16,-1.,0.));
#731=DIRECTION('',(1.,0.,0.));
#732=DIRECTION('',(-2.56996070515082E-16,-1.,0.));
#733=DIRECTION('',(-1.,0.,0.));
#734=DIRECTION('',(-2.58913951638329E-16,-1.,0.));
#735=DIRECTION('',(1.,0.,0.));
#736=DIRECTION('',(0.,-1.,0.));
#737=DIRECTION('',(1.,0.,0.));
#738=DIRECTION('',(0.,-1.,0.));
#739=DIRECTION('',(1.,0.,0.));
#740=DIRECTION('',(-2.47817639425259E-16,-1.,0.));
#741=DIRECTION('',(0.,-1.,0.));
#742=DIRECTION('',(-1.,0.,0.));
#743=DIRECTION('',(3.08395284618099E-16,-1.,0.));
#744=DIRECTION('',(-1.,-1.19636101791504E-16,0.));
#745=DIRECTION('',(0.,1.,0.));
#746=DIRECTION('',(0.,0.,1.));
#747=DIRECTION('',(0.,0.,-1.));
#748=DIRECTION('',(0.,0.,-1.));
#749=DIRECTION('',(1.,-2.56996070515082E-16,0.));
#750=DIRECTION('',(2.56996070515082E-16,1.,0.));
#751=DIRECTION('',(0.,0.,-1.));
#752=DIRECTION('',(0.,1.,0.));
#753=DIRECTION('',(0.,0.,1.));
#754=DIRECTION('',(0.,0.,-1.));
#755=DIRECTION('',(1.,-2.56996070515082E-16,0.));
#756=DIRECTION('',(2.56996070515082E-16,1.,0.));
#757=DIRECTION('',(0.,1.,0.));
#758=DIRECTION('',(0.,0.,1.));
#759=DIRECTION('',(0.,0.,1.));
#760=DIRECTION('',(0.,0.,1.));
#761=DIRECTION('',(-1.,2.58913951638329E-16,0.));
#762=DIRECTION('',(-2.58913951638329E-16,-1.,0.));
#763=DIRECTION('',(0.,0.,1.));
#764=DIRECTION('',(0.,-1.,0.));
#765=DIRECTION('',(0.,0.,-1.));
#766=DIRECTION('',(0.,0.,1.));
#767=DIRECTION('',(-1.,0.,0.));
#768=DIRECTION('',(0.,0.,1.));
#769=DIRECTION('',(0.,-1.,0.));
#770=DIRECTION('',(0.,0.,-1.));
#771=DIRECTION('',(0.,0.,1.));
#772=DIRECTION('',(0.,0.,1.));
#773=DIRECTION('',(-1.,2.47817639425259E-16,0.));
#774=DIRECTION('',(-2.47817639425259E-16,-1.,0.));
#775=DIRECTION('',(0.,0.,1.));
#776=DIRECTION('',(0.,-1.,0.));
#777=DIRECTION('',(0.,0.,-1.));
#778=DIRECTION('',(0.,0.,1.));
#779=DIRECTION('',(-1.,1.23908819712629E-16,0.));
#780=DIRECTION('',(-1.23908819712629E-16,-1.,0.));
#781=DIRECTION('',(0.,-1.,0.));
#782=DIRECTION('',(0.,0.,-1.));
#783=DIRECTION('',(0.,0.,1.));
#784=DIRECTION('',(0.,0.,1.));
#785=DIRECTION('',(-1.,0.,0.));
#786=DIRECTION('',(0.,0.,1.));
#787=DIRECTION('',(0.,0.,1.));
#788=DIRECTION('',(0.,-1.,0.));
#789=DIRECTION('',(0.,0.,-1.));
#790=DIRECTION('',(0.,0.,1.));
#791=DIRECTION('',(-1.,2.47817639425259E-16,0.));
#792=DIRECTION('',(-2.47817639425259E-16,-1.,0.));
#793=DIRECTION('',(0.,0.,1.));
#794=DIRECTION('',(1.,0.,0.));
#795=DIRECTION('',(0.,0.,1.));
#796=DIRECTION('',(1.,0.,0.));
#797=DIRECTION('',(0.,0.,1.));
#798=DIRECTION('',(1.,0.,0.));
#799=DIRECTION('',(0.,0.,1.));
#800=DIRECTION('',(1.,0.,0.));
#801=DIRECTION('',(0.,-1.,0.));
#802=DIRECTION('',(0.,0.,-1.));
#803=DIRECTION('',(0.,0.,1.));
#804=DIRECTION('',(0.,0.,1.));
#805=DIRECTION('',(-1.,2.47817639425259E-16,0.));
#806=DIRECTION('',(-2.47817639425259E-16,-1.,0.));
#807=DIRECTION('',(0.,0.,1.));
#808=DIRECTION('',(0.,-1.,0.));
#809=DIRECTION('',(0.,0.,-1.));
#810=DIRECTION('',(0.,0.,1.));
#811=DIRECTION('',(-1.,1.23908819712629E-16,0.));
#812=DIRECTION('',(-1.23908819712629E-16,-1.,0.));
#813=DIRECTION('',(-1.,0.,0.));
#814=DIRECTION('',(0.,0.,1.));
#815=DIRECTION('',(0.,0.,1.));
#816=DIRECTION('',(0.,0.,1.));
#817=DIRECTION('',(0.,1.,0.));
#818=DIRECTION('',(0.,0.,1.));
#819=DIRECTION('',(0.,0.,1.));
#820=DIRECTION('',(-1.,-3.08395284618099E-16,0.));
#821=DIRECTION('',(3.08395284618099E-16,-1.,0.));
#822=DIRECTION('',(0.,0.,1.));
#823=DIRECTION('',(-1.19636101791504E-16,1.,0.));
#824=DIRECTION('',(-1.,-1.19636101791504E-16,0.));
#825=CARTESIAN_POINT('',(0.,0.,0.));
#826=CARTESIAN_POINT('',(0.,0.,0.0015));
#827=CARTESIAN_POINT('',(-0.0325,0.0325,0.0015));
#828=CARTESIAN_POINT('',(-0.0308,0.0325,0.0015));
#829=CARTESIAN_POINT('',(-0.0325,-0.0315,0.0015));
#830=CARTESIAN_POINT('',(-0.0308,-0.0315,0.0015));
#831=CARTESIAN_POINT('',(0.0305,-0.032,0.0015));
#832=CARTESIAN_POINT('',(0.0322,-0.032,0.0015));
#833=CARTESIAN_POINT('',(0.0305,0.032,0.0015));
#834=CARTESIAN_POINT('',(0.0322,0.032,0.0015));
#835=CARTESIAN_POINT('',(1.38777878078145E-17,0.0405,0.0015));
#836=CARTESIAN_POINT('',(-0.04,0.0405,0.0015));
#837=CARTESIAN_POINT('',(0.04,0.0405,0.0015));
#838=CARTESIAN_POINT('',(-0.04,0.,0.0015));
#839=CARTESIAN_POINT('',(-0.04,-0.0405,0.0015));
#840=CARTESIAN_POINT('',(-6.93889390390723E-18,-0.0405,0.0015));
#841=CARTESIAN_POINT('',(0.04,-0.0405,0.0015));
#842=CARTESIAN_POINT('',(0.04,0.,0.0015));
#843=CARTESIAN_POINT('',(-0.011,-0.0138,0.0015));
#844=CARTESIAN_POINT('',(-0.011,-0.0071,0.0015));
#845=CARTESIAN_POINT('',(-0.011,-0.0205,0.0015));
#846=CARTESIAN_POINT('',(-0.018,-0.0205,0.0015));
#847=CARTESIAN_POINT('',(-0.025,-0.0205,0.0015));
#848=CARTESIAN_POINT('',(-0.025,-0.0138,0.0015));
#849=CARTESIAN_POINT('',(-0.025,-0.0071,0.0015));
#850=CARTESIAN_POINT('',(-0.018,-0.0071,0.0015));
#851=CARTESIAN_POINT('',(-0.025,0.00495,0.0015));
#852=CARTESIAN_POINT('',(-0.025,0.01195,0.0015));
#853=CARTESIAN_POINT('',(-0.025,-0.00205,0.0015));
#854=CARTESIAN_POINT('',(-0.018,0.01195,0.0015));
#855=CARTESIAN_POINT('',(-0.011,0.01195,0.0015));
#856=CARTESIAN_POINT('',(-0.011,0.00495,0.0015));
#857=CARTESIAN_POINT('',(-0.011,-0.00205,0.0015));
#858=CARTESIAN_POINT('',(-0.018,-0.00205,0.0015));
#859=CARTESIAN_POINT('',(-0.025,0.024,0.0015));
#860=CARTESIAN_POINT('',(-0.025,0.031,0.0015));
#861=CARTESIAN_POINT('',(-0.025,0.017,0.0015));
#862=CARTESIAN_POINT('',(-0.018,0.031,0.0015));
#863=CARTESIAN_POINT('',(-0.011,0.031,0.0015));
#864=CARTESIAN_POINT('',(-0.011,0.024,0.0015));
#865=CARTESIAN_POINT('',(-0.011,0.017,0.0015));
#866=CARTESIAN_POINT('',(-0.018,0.017,0.0015));
#867=CARTESIAN_POINT('',(-0.0096,-0.0142675088718533,0.0015));
#868=CARTESIAN_POINT('',(-0.0096,-0.00726750887185335,0.0015));
#869=CARTESIAN_POINT('',(-0.0096,-0.0212675088718534,0.0015));
#870=CARTESIAN_POINT('',(-0.0026,-0.00726750887185335,0.0015));
#871=CARTESIAN_POINT('',(0.0044,-0.00726750887185335,0.0015));
#872=CARTESIAN_POINT('',(0.0044,-0.0142675088718533,0.0015));
#873=CARTESIAN_POINT('',(0.0044,-0.0212675088718534,0.0015));
#874=CARTESIAN_POINT('',(-0.0026,-0.0212675088718534,0.0015));
#875=CARTESIAN_POINT('',(0.02125,0.026,0.0015));
#876=CARTESIAN_POINT('',(0.0285,0.026,0.0015));
#877=CARTESIAN_POINT('',(0.014,0.026,0.0015));
#878=CARTESIAN_POINT('',(0.0285,0.01475,0.0015));
#879=CARTESIAN_POINT('',(0.0285,0.0035,0.0015));
#880=CARTESIAN_POINT('',(0.02125,0.0035,0.0015));
#881=CARTESIAN_POINT('',(0.014,0.0035,0.0015));
#882=CARTESIAN_POINT('',(0.014,0.01475,0.0015));
#883=CARTESIAN_POINT('',(0.,0.,0.));
#884=CARTESIAN_POINT('',(0.,-0.00726750887185335,0.));
#885=CARTESIAN_POINT('',(-0.0096,-0.00726750887185335,0.));
#886=CARTESIAN_POINT('',(0.0044,-0.00726750887185335,0.));
#887=CARTESIAN_POINT('',(-0.0096,2.37904933848247E-18,0.));
#888=CARTESIAN_POINT('',(-0.0096,-0.0212675088718534,0.));
#889=CARTESIAN_POINT('',(0.,-0.0212675088718534,0.));
#890=CARTESIAN_POINT('',(0.0044,-0.0212675088718534,0.));
#891=CARTESIAN_POINT('',(0.0044,-5.45198806735569E-19,0.));
#892=CARTESIAN_POINT('',(-0.0325,0.0325,0.));
#893=CARTESIAN_POINT('',(-0.0308,0.0325,0.));
#894=CARTESIAN_POINT('',(-0.0325,-0.0315,0.));
#895=CARTESIAN_POINT('',(-0.0308,-0.0315,0.));
#896=CARTESIAN_POINT('',(0.0305,-0.032,0.));
#897=CARTESIAN_POINT('',(0.0322,-0.032,0.));
#898=CARTESIAN_POINT('',(0.0305,0.032,0.));
#899=CARTESIAN_POINT('',(0.0322,0.032,0.));
#900=CARTESIAN_POINT('',(0.,0.01195,0.));
#901=CARTESIAN_POINT('',(-0.025,0.01195,0.));
#902=CARTESIAN_POINT('',(-0.011,0.01195,0.));
#903=CARTESIAN_POINT('',(-0.025,6.19544098563146E-18,0.));
#904=CARTESIAN_POINT('',(-0.025,-0.00205,0.));
#905=CARTESIAN_POINT('',(0.,-0.00205,0.));
#906=CARTESIAN_POINT('',(-0.011,-0.00205,0.));
#907=CARTESIAN_POINT('',(-0.011,1.36299701683892E-18,0.));
#908=CARTESIAN_POINT('',(1.38777878078145E-17,0.0405,0.));
#909=CARTESIAN_POINT('',(-0.04,0.0405,0.));
#910=CARTESIAN_POINT('',(0.04,0.0405,0.));
#911=CARTESIAN_POINT('',(0.04,0.,0.));
#912=CARTESIAN_POINT('',(0.04,-0.0405,0.));
#913=CARTESIAN_POINT('',(-6.93889390390723E-18,-0.0405,0.));
#914=CARTESIAN_POINT('',(-0.04,-0.0405,0.));
#915=CARTESIAN_POINT('',(-0.04,0.,0.));
#916=CARTESIAN_POINT('',(0.,-0.0205,0.));
#917=CARTESIAN_POINT('',(-0.011,-0.0205,0.));
#918=CARTESIAN_POINT('',(-0.025,-0.0205,0.));
#919=CARTESIAN_POINT('',(-0.011,2.84805346802162E-18,0.));
#920=CARTESIAN_POINT('',(-0.011,-0.0071,0.));
#921=CARTESIAN_POINT('',(0.,-0.0071,0.));
#922=CARTESIAN_POINT('',(-0.025,-0.0071,0.));
#923=CARTESIAN_POINT('',(-0.025,0.,0.));
#924=CARTESIAN_POINT('',(0.,0.031,0.));
#925=CARTESIAN_POINT('',(-0.025,0.031,0.));
#926=CARTESIAN_POINT('',(-0.011,0.031,0.));
#927=CARTESIAN_POINT('',(-0.025,0.,0.));
#928=CARTESIAN_POINT('',(-0.025,0.017,0.));
#929=CARTESIAN_POINT('',(0.,0.017,0.));
#930=CARTESIAN_POINT('',(-0.011,0.017,0.));
#931=CARTESIAN_POINT('',(-0.011,2.72599403367785E-18,0.));
#932=CARTESIAN_POINT('',(0.0285,0.,0.));
#933=CARTESIAN_POINT('',(0.0285,0.026,0.));
#934=CARTESIAN_POINT('',(0.0285,0.0035,0.));
#935=CARTESIAN_POINT('',(0.,0.026,0.));
#936=CARTESIAN_POINT('',(0.014,0.026,0.));
#937=CARTESIAN_POINT('',(0.014,4.3175339846534E-18,0.));
#938=CARTESIAN_POINT('',(0.014,0.0035,0.));
#939=CARTESIAN_POINT('',(-4.18726356270265E-19,0.0035,0.));
#940=CARTESIAN_POINT('',(1.38777878078145E-17,0.0405,0.0015));
#941=CARTESIAN_POINT('',(-0.04,0.0405,0.0015));
#942=CARTESIAN_POINT('',(0.04,0.0405,0.0015));
#943=CARTESIAN_POINT('',(-0.04,0.,0.0015));
#944=CARTESIAN_POINT('',(-0.04,-0.0405,0.0015));
#945=CARTESIAN_POINT('',(-6.93889390390723E-18,-0.0405,0.0015));
#946=CARTESIAN_POINT('',(0.04,-0.0405,0.0015));
#947=CARTESIAN_POINT('',(0.04,0.,0.0015));
#948=CARTESIAN_POINT('',(-0.018,-0.0205,-0.0005));
#949=CARTESIAN_POINT('',(-0.025,-0.0205,-0.0005));
#950=CARTESIAN_POINT('',(-0.011,-0.0205,-0.0005));
#951=CARTESIAN_POINT('',(-0.011,-0.0138,-0.0005));
#952=CARTESIAN_POINT('',(-0.011,-0.0071,-0.0005));
#953=CARTESIAN_POINT('',(-0.018,-0.0071,-0.0005));
#954=CARTESIAN_POINT('',(-0.025,-0.0071,-0.0005));
#955=CARTESIAN_POINT('',(-0.025,-0.0138,-0.0005));
#956=CARTESIAN_POINT('',(-0.018,0.01195,-0.0005));
#957=CARTESIAN_POINT('',(-0.011,0.01195,-0.0005));
#958=CARTESIAN_POINT('',(-0.025,0.01195,-0.0005));
#959=CARTESIAN_POINT('',(-0.025,0.00495,-0.0005));
#960=CARTESIAN_POINT('',(-0.025,-0.00205,-0.0005));
#961=CARTESIAN_POINT('',(-0.018,-0.00205,-0.0005));
#962=CARTESIAN_POINT('',(-0.011,-0.00205,-0.0005));
#963=CARTESIAN_POINT('',(-0.011,0.00495,-0.0005));
#964=CARTESIAN_POINT('',(-0.018,0.031,-0.0005));
#965=CARTESIAN_POINT('',(-0.011,0.031,-0.0005));
#966=CARTESIAN_POINT('',(-0.025,0.031,-0.0005));
#967=CARTESIAN_POINT('',(-0.025,0.024,-0.0005));
#968=CARTESIAN_POINT('',(-0.025,0.017,-0.0005));
#969=CARTESIAN_POINT('',(-0.018,0.017,-0.0005));
#970=CARTESIAN_POINT('',(-0.011,0.017,-0.0005));
#971=CARTESIAN_POINT('',(-0.011,0.024,-0.0005));
#972=CARTESIAN_POINT('',(0.0305,0.032,-0.0005));
#973=CARTESIAN_POINT('',(0.0305,-0.032,-0.0005));
#974=CARTESIAN_POINT('',(-0.0325,-0.0315,-0.0005));
#975=CARTESIAN_POINT('',(-0.0325,0.0325,-0.0005));
#976=CARTESIAN_POINT('',(-0.0026,-0.00726750887185335,-0.0005));
#977=CARTESIAN_POINT('',(0.0044,-0.00726750887185335,-0.0005));
#978=CARTESIAN_POINT('',(-0.0096,-0.00726750887185335,-0.0005));
#979=CARTESIAN_POINT('',(-0.0096,-0.0142675088718533,-0.0005));
#980=CARTESIAN_POINT('',(-0.0096,-0.0212675088718534,-0.0005));
#981=CARTESIAN_POINT('',(-0.0026,-0.0212675088718534,-0.0005));
#982=CARTESIAN_POINT('',(0.0044,-0.0212675088718534,-0.0005));
#983=CARTESIAN_POINT('',(0.0044,-0.0142675088718533,-0.0005));
#984=CARTESIAN_POINT('',(0.0285,0.01475,-0.0005));
#985=CARTESIAN_POINT('',(0.0285,0.0035,-0.0005));
#986=CARTESIAN_POINT('',(0.0285,0.026,-0.0005));
#987=CARTESIAN_POINT('',(0.02125,0.026,-0.0005));
#988=CARTESIAN_POINT('',(0.014,0.026,-0.0005));
#989=CARTESIAN_POINT('',(0.014,0.01475,-0.0005));
#990=CARTESIAN_POINT('',(0.014,0.0035,-0.0005));
#991=CARTESIAN_POINT('',(0.02125,0.0035,-0.0005));
#992=MECHANICAL_DESIGN_GEOMETRIC_PRESENTATION_REPRESENTATION('',(#625),
#993);
#993=(
GEOMETRIC_REPRESENTATION_CONTEXT(3)
GLOBAL_UNCERTAINTY_ASSIGNED_CONTEXT((#994))
GLOBAL_UNIT_ASSIGNED_CONTEXT((#997,#996,#995))
REPRESENTATION_CONTEXT('Part 1','TOP_LEVEL_ASSEMBLY_PART')
);
#994=UNCERTAINTY_MEASURE_WITH_UNIT(LENGTH_MEASURE(1.E-8),#997,
'DISTANCE_ACCURACY_VALUE','Maximum Tolerance applied to model');
#995=(
NAMED_UNIT(*)
SI_UNIT($,.STERADIAN.)
SOLID_ANGLE_UNIT()
);
#996=(
NAMED_UNIT(*)
PLANE_ANGLE_UNIT()
SI_UNIT($,.RADIAN.)
);
#997=(
LENGTH_UNIT()
NAMED_UNIT(*)
SI_UNIT($,.METRE.)
);
#998=PRODUCT_DEFINITION_SHAPE('','',#999);
#999=PRODUCT_DEFINITION('','',#1001,#1000);
#1000=PRODUCT_DEFINITION_CONTEXT('',#1007,'design');
#1001=PRODUCT_DEFINITION_FORMATION_WITH_SPECIFIED_SOURCE('','',#1003,
 .NOT_KNOWN.);
#1002=PRODUCT_RELATED_PRODUCT_CATEGORY('','',(#1003));
#1003=PRODUCT('Part 1','Part 1','Part 1',(#1005));
#1004=PRODUCT_CATEGORY('','');
#1005=PRODUCT_CONTEXT('',#1007,'mechanical');
#1006=APPLICATION_PROTOCOL_DEFINITION('international standard',
'ap242_managed_model_based_3d_engineering',2020,#1007);
#1007=APPLICATION_CONTEXT('managed model based 3d engineering');
ENDSEC;
END-ISO-10303-21;
