ISO-10303-21;
HEADER;
/* Generated by software containing ST-Developer
 * from STEP Tools, Inc. (www.steptools.com) 
 */
/* OPTION: using custom renumber hook */

FILE_DESCRIPTION(
/* description */ ('STEP AP242 Edition 2',
'CAx-IF Rec.Pracs.---Representation and Presentation of Product Manufa
cturing Information (PMI)---4.0---2014-10-13',
'CAx-IF Rec.Pracs.---3D Tessellated Geometry---0.4---2014-09-14','2;1',
'CAx-IF Rec.Pracs.---User Defined Attributes---1.5---2016-08-15'),
/* implementation_level */ '2;1');

FILE_NAME(
/* name */ 'Part Studio 1',
/* time_stamp */ '2026-09-14T08:45:25Z',
/* author */ (''),
/* organization */ (''),
/* preprocessor_version */ 'ST-DEVELOPER v20',
/* originating_system */ 'ONSHAPE BY PTC INC, 1.220',
/* authorisation */ '  ');

FILE_SCHEMA (('AP242_MANAGED_MODEL_BASED_3D_ENGINEERING_MIM_LF { 1 0 10303 442 3 1 4 }'));
ENDSEC;

DATA;
#10=SHAPE_REPRESENTATION_RELATIONSHIP('','',#519,#11);
#11=ADVANCED_BREP_SHAPE_REPRESENTATION('',(#517),#855);
#12=CYLINDRICAL_SURFACE('',#538,0.004);
#13=CYLINDRICAL_SURFACE('',#542,0.004);
#14=CYLINDRICAL_SURFACE('',#546,0.004);
#15=CYLINDRICAL_SURFACE('',#550,0.004);
#16=CYLINDRICAL_SURFACE('',#554,0.00235);
#17=CYLINDRICAL_SURFACE('',#557,0.00235);
#18=CYLINDRICAL_SURFACE('',#560,0.00235);
#19=CYLINDRICAL_SURFACE('',#563,0.00235);
#20=CIRCLE('',#526,0.004);
#21=CIRCLE('',#527,0.004);
#22=CIRCLE('',#528,0.004);
#23=CIRCLE('',#529,0.004);
#24=CIRCLE('',#539,0.004);
#25=CIRCLE('',#541,0.00235);
#26=CIRCLE('',#543,0.004);
#27=CIRCLE('',#545,0.00235);
#28=CIRCLE('',#547,0.004);
#29=CIRCLE('',#549,0.00235);
#30=CIRCLE('',#551,0.004);
#31=CIRCLE('',#553,0.00235);
#32=CIRCLE('',#555,0.00235);
#33=CIRCLE('',#558,0.00235);
#34=CIRCLE('',#561,0.00235);
#35=CIRCLE('',#564,0.00235);
#36=ORIENTED_EDGE('',*,*,#160,.F.);
#37=ORIENTED_EDGE('',*,*,#161,.F.);
#38=ORIENTED_EDGE('',*,*,#162,.T.);
#39=ORIENTED_EDGE('',*,*,#163,.T.);
#40=ORIENTED_EDGE('',*,*,#164,.F.);
#41=ORIENTED_EDGE('',*,*,#165,.T.);
#42=ORIENTED_EDGE('',*,*,#166,.T.);
#43=ORIENTED_EDGE('',*,*,#167,.F.);
#44=ORIENTED_EDGE('',*,*,#168,.F.);
#45=ORIENTED_EDGE('',*,*,#169,.T.);
#46=ORIENTED_EDGE('',*,*,#161,.T.);
#47=ORIENTED_EDGE('',*,*,#170,.F.);
#48=ORIENTED_EDGE('',*,*,#171,.F.);
#49=ORIENTED_EDGE('',*,*,#172,.F.);
#50=ORIENTED_EDGE('',*,*,#173,.T.);
#51=ORIENTED_EDGE('',*,*,#174,.T.);
#52=ORIENTED_EDGE('',*,*,#175,.F.);
#53=ORIENTED_EDGE('',*,*,#164,.T.);
#54=ORIENTED_EDGE('',*,*,#176,.F.);
#55=ORIENTED_EDGE('',*,*,#177,.F.);
#56=ORIENTED_EDGE('',*,*,#178,.T.);
#57=ORIENTED_EDGE('',*,*,#179,.T.);
#58=ORIENTED_EDGE('',*,*,#180,.F.);
#59=ORIENTED_EDGE('',*,*,#181,.T.);
#60=ORIENTED_EDGE('',*,*,#182,.T.);
#61=ORIENTED_EDGE('',*,*,#183,.T.);
#62=ORIENTED_EDGE('',*,*,#173,.F.);
#63=ORIENTED_EDGE('',*,*,#184,.F.);
#64=ORIENTED_EDGE('',*,*,#185,.F.);
#65=ORIENTED_EDGE('',*,*,#186,.T.);
#66=ORIENTED_EDGE('',*,*,#187,.T.);
#67=ORIENTED_EDGE('',*,*,#177,.T.);
#68=ORIENTED_EDGE('',*,*,#188,.F.);
#69=ORIENTED_EDGE('',*,*,#182,.F.);
#70=ORIENTED_EDGE('',*,*,#189,.F.);
#71=ORIENTED_EDGE('',*,*,#178,.F.);
#72=ORIENTED_EDGE('',*,*,#190,.T.);
#73=ORIENTED_EDGE('',*,*,#191,.T.);
#74=ORIENTED_EDGE('',*,*,#192,.F.);
#75=ORIENTED_EDGE('',*,*,#193,.F.);
#76=ORIENTED_EDGE('',*,*,#194,.F.);
#77=ORIENTED_EDGE('',*,*,#195,.F.);
#78=ORIENTED_EDGE('',*,*,#196,.F.);
#79=ORIENTED_EDGE('',*,*,#168,.T.);
#80=ORIENTED_EDGE('',*,*,#197,.T.);
#81=ORIENTED_EDGE('',*,*,#198,.T.);
#82=ORIENTED_EDGE('',*,*,#162,.F.);
#83=ORIENTED_EDGE('',*,*,#169,.F.);
#84=ORIENTED_EDGE('',*,*,#196,.T.);
#85=ORIENTED_EDGE('',*,*,#166,.F.);
#86=ORIENTED_EDGE('',*,*,#199,.T.);
#87=ORIENTED_EDGE('',*,*,#200,.T.);
#88=ORIENTED_EDGE('',*,*,#201,.F.);
#89=ORIENTED_EDGE('',*,*,#202,.F.);
#90=ORIENTED_EDGE('',*,*,#197,.F.);
#91=ORIENTED_EDGE('',*,*,#167,.T.);
#92=ORIENTED_EDGE('',*,*,#201,.T.);
#93=ORIENTED_EDGE('',*,*,#203,.F.);
#94=ORIENTED_EDGE('',*,*,#204,.T.);
#95=ORIENTED_EDGE('',*,*,#163,.F.);
#96=ORIENTED_EDGE('',*,*,#198,.F.);
#97=ORIENTED_EDGE('',*,*,#195,.T.);
#98=ORIENTED_EDGE('',*,*,#202,.T.);
#99=ORIENTED_EDGE('',*,*,#200,.F.);
#100=ORIENTED_EDGE('',*,*,#205,.F.);
#101=ORIENTED_EDGE('',*,*,#172,.T.);
#102=ORIENTED_EDGE('',*,*,#206,.F.);
#103=ORIENTED_EDGE('',*,*,#190,.F.);
#104=ORIENTED_EDGE('',*,*,#184,.T.);
#105=ORIENTED_EDGE('',*,*,#171,.T.);
#106=ORIENTED_EDGE('',*,*,#207,.T.);
#107=ORIENTED_EDGE('',*,*,#191,.F.);
#108=ORIENTED_EDGE('',*,*,#206,.T.);
#109=ORIENTED_EDGE('',*,*,#174,.F.);
#110=ORIENTED_EDGE('',*,*,#183,.F.);
#111=ORIENTED_EDGE('',*,*,#188,.T.);
#112=ORIENTED_EDGE('',*,*,#176,.T.);
#113=ORIENTED_EDGE('',*,*,#208,.F.);
#114=ORIENTED_EDGE('',*,*,#192,.T.);
#115=ORIENTED_EDGE('',*,*,#209,.F.);
#116=ORIENTED_EDGE('',*,*,#208,.T.);
#117=ORIENTED_EDGE('',*,*,#210,.F.);
#118=ORIENTED_EDGE('',*,*,#193,.T.);
#119=ORIENTED_EDGE('',*,*,#211,.F.);
#120=ORIENTED_EDGE('',*,*,#210,.T.);
#121=ORIENTED_EDGE('',*,*,#212,.F.);
#122=ORIENTED_EDGE('',*,*,#194,.T.);
#123=ORIENTED_EDGE('',*,*,#213,.F.);
#124=ORIENTED_EDGE('',*,*,#212,.T.);
#125=ORIENTED_EDGE('',*,*,#179,.F.);
#126=ORIENTED_EDGE('',*,*,#189,.T.);
#127=ORIENTED_EDGE('',*,*,#181,.F.);
#128=ORIENTED_EDGE('',*,*,#214,.F.);
#129=ORIENTED_EDGE('',*,*,#215,.F.);
#130=ORIENTED_EDGE('',*,*,#214,.T.);
#131=ORIENTED_EDGE('',*,*,#180,.T.);
#132=ORIENTED_EDGE('',*,*,#216,.F.);
#133=ORIENTED_EDGE('',*,*,#215,.T.);
#134=ORIENTED_EDGE('',*,*,#216,.T.);
#135=ORIENTED_EDGE('',*,*,#217,.F.);
#136=ORIENTED_EDGE('',*,*,#213,.T.);
#137=ORIENTED_EDGE('',*,*,#217,.T.);
#138=ORIENTED_EDGE('',*,*,#218,.F.);
#139=ORIENTED_EDGE('',*,*,#211,.T.);
#140=ORIENTED_EDGE('',*,*,#218,.T.);
#141=ORIENTED_EDGE('',*,*,#219,.F.);
#142=ORIENTED_EDGE('',*,*,#209,.T.);
#143=ORIENTED_EDGE('',*,*,#219,.T.);
#144=ORIENTED_EDGE('',*,*,#185,.T.);
#145=ORIENTED_EDGE('',*,*,#207,.F.);
#146=ORIENTED_EDGE('',*,*,#170,.T.);
#147=ORIENTED_EDGE('',*,*,#160,.T.);
#148=ORIENTED_EDGE('',*,*,#204,.F.);
#149=ORIENTED_EDGE('',*,*,#220,.F.);
#150=ORIENTED_EDGE('',*,*,#221,.T.);
#151=ORIENTED_EDGE('',*,*,#205,.T.);
#152=ORIENTED_EDGE('',*,*,#199,.F.);
#153=ORIENTED_EDGE('',*,*,#165,.F.);
#154=ORIENTED_EDGE('',*,*,#175,.T.);
#155=ORIENTED_EDGE('',*,*,#187,.F.);
#156=ORIENTED_EDGE('',*,*,#220,.T.);
#157=ORIENTED_EDGE('',*,*,#203,.T.);
#158=ORIENTED_EDGE('',*,*,#221,.F.);
#159=ORIENTED_EDGE('',*,*,#186,.F.);
#160=EDGE_CURVE('',#222,#223,#268,.T.);
#161=EDGE_CURVE('',#224,#222,#269,.T.);
#162=EDGE_CURVE('',#224,#225,#270,.T.);
#163=EDGE_CURVE('',#225,#223,#271,.T.);
#164=EDGE_CURVE('',#226,#227,#272,.T.);
#165=EDGE_CURVE('',#226,#228,#273,.T.);
#166=EDGE_CURVE('',#228,#229,#274,.T.);
#167=EDGE_CURVE('',#230,#229,#275,.T.);
#168=EDGE_CURVE('',#231,#230,#276,.T.);
#169=EDGE_CURVE('',#231,#224,#277,.T.);
#170=EDGE_CURVE('',#232,#222,#278,.T.);
#171=EDGE_CURVE('',#233,#232,#279,.T.);
#172=EDGE_CURVE('',#234,#233,#280,.T.);
#173=EDGE_CURVE('',#234,#235,#281,.T.);
#174=EDGE_CURVE('',#235,#227,#282,.T.);
#175=EDGE_CURVE('',#226,#236,#283,.T.);
#176=EDGE_CURVE('',#237,#227,#284,.T.);
#177=EDGE_CURVE('',#236,#237,#285,.T.);
#178=EDGE_CURVE('',#238,#239,#286,.T.);
#179=EDGE_CURVE('',#239,#240,#287,.F.);
#180=EDGE_CURVE('',#241,#240,#288,.T.);
#181=EDGE_CURVE('',#241,#242,#289,.T.);
#182=EDGE_CURVE('',#242,#243,#290,.T.);
#183=EDGE_CURVE('',#243,#235,#291,.T.);
#184=EDGE_CURVE('',#238,#234,#292,.T.);
#185=EDGE_CURVE('',#244,#245,#293,.T.);
#186=EDGE_CURVE('',#244,#246,#294,.T.);
#187=EDGE_CURVE('',#246,#236,#295,.T.);
#188=EDGE_CURVE('',#243,#237,#296,.T.);
#189=EDGE_CURVE('',#239,#242,#20,.T.);
#190=EDGE_CURVE('',#238,#247,#297,.T.);
#191=EDGE_CURVE('',#247,#245,#298,.T.);
#192=EDGE_CURVE('',#248,#248,#21,.T.);
#193=EDGE_CURVE('',#249,#249,#22,.T.);
#194=EDGE_CURVE('',#250,#250,#23,.T.);
#195=EDGE_CURVE('',#251,#252,#299,.T.);
#196=EDGE_CURVE('',#231,#251,#300,.T.);
#197=EDGE_CURVE('',#230,#252,#301,.T.);
#198=EDGE_CURVE('',#251,#225,#302,.T.);
#199=EDGE_CURVE('',#228,#253,#303,.T.);
#200=EDGE_CURVE('',#253,#254,#304,.T.);
#201=EDGE_CURVE('',#229,#254,#305,.T.);
#202=EDGE_CURVE('',#252,#254,#306,.T.);
#203=EDGE_CURVE('',#255,#256,#307,.T.);
#204=EDGE_CURVE('',#255,#223,#308,.T.);
#205=EDGE_CURVE('',#256,#253,#309,.T.);
#206=EDGE_CURVE('',#247,#233,#310,.T.);
#207=EDGE_CURVE('',#232,#245,#311,.T.);
#208=EDGE_CURVE('',#257,#257,#24,.T.);
#209=EDGE_CURVE('',#258,#258,#25,.T.);
#210=EDGE_CURVE('',#259,#259,#26,.T.);
#211=EDGE_CURVE('',#260,#260,#27,.T.);
#212=EDGE_CURVE('',#261,#261,#28,.T.);
#213=EDGE_CURVE('',#262,#262,#29,.T.);
#214=EDGE_CURVE('',#240,#241,#30,.T.);
#215=EDGE_CURVE('',#263,#263,#31,.T.);
#216=EDGE_CURVE('',#264,#264,#32,.T.);
#217=EDGE_CURVE('',#265,#265,#33,.T.);
#218=EDGE_CURVE('',#266,#266,#34,.T.);
#219=EDGE_CURVE('',#267,#267,#35,.T.);
#220=EDGE_CURVE('',#244,#255,#312,.T.);
#221=EDGE_CURVE('',#246,#256,#313,.T.);
#222=VERTEX_POINT('',#716);
#223=VERTEX_POINT('',#717);
#224=VERTEX_POINT('',#719);
#225=VERTEX_POINT('',#721);
#226=VERTEX_POINT('',#725);
#227=VERTEX_POINT('',#726);
#228=VERTEX_POINT('',#728);
#229=VERTEX_POINT('',#730);
#230=VERTEX_POINT('',#732);
#231=VERTEX_POINT('',#734);
#232=VERTEX_POINT('',#737);
#233=VERTEX_POINT('',#739);
#234=VERTEX_POINT('',#741);
#235=VERTEX_POINT('',#743);
#236=VERTEX_POINT('',#747);
#237=VERTEX_POINT('',#749);
#238=VERTEX_POINT('',#753);
#239=VERTEX_POINT('',#754);
#240=VERTEX_POINT('',#756);
#241=VERTEX_POINT('',#758);
#242=VERTEX_POINT('',#760);
#243=VERTEX_POINT('',#762);
#244=VERTEX_POINT('',#767);
#245=VERTEX_POINT('',#768);
#246=VERTEX_POINT('',#770);
#247=VERTEX_POINT('',#775);
#248=VERTEX_POINT('',#778);
#249=VERTEX_POINT('',#780);
#250=VERTEX_POINT('',#782);
#251=VERTEX_POINT('',#785);
#252=VERTEX_POINT('',#786);
#253=VERTEX_POINT('',#793);
#254=VERTEX_POINT('',#795);
#255=VERTEX_POINT('',#801);
#256=VERTEX_POINT('',#802);
#257=VERTEX_POINT('',#812);
#258=VERTEX_POINT('',#815);
#259=VERTEX_POINT('',#818);
#260=VERTEX_POINT('',#821);
#261=VERTEX_POINT('',#824);
#262=VERTEX_POINT('',#827);
#263=VERTEX_POINT('',#832);
#264=VERTEX_POINT('',#835);
#265=VERTEX_POINT('',#839);
#266=VERTEX_POINT('',#843);
#267=VERTEX_POINT('',#847);
#268=LINE('',#715,#314);
#269=LINE('',#718,#315);
#270=LINE('',#720,#316);
#271=LINE('',#722,#317);
#272=LINE('',#724,#318);
#273=LINE('',#727,#319);
#274=LINE('',#729,#320);
#275=LINE('',#731,#321);
#276=LINE('',#733,#322);
#277=LINE('',#735,#323);
#278=LINE('',#736,#324);
#279=LINE('',#738,#325);
#280=LINE('',#740,#326);
#281=LINE('',#742,#327);
#282=LINE('',#744,#328);
#283=LINE('',#746,#329);
#284=LINE('',#748,#330);
#285=LINE('',#750,#331);
#286=LINE('',#752,#332);
#287=LINE('',#755,#333);
#288=LINE('',#757,#334);
#289=LINE('',#759,#335);
#290=LINE('',#761,#336);
#291=LINE('',#763,#337);
#292=LINE('',#764,#338);
#293=LINE('',#766,#339);
#294=LINE('',#769,#340);
#295=LINE('',#771,#341);
#296=LINE('',#772,#342);
#297=LINE('',#774,#343);
#298=LINE('',#776,#344);
#299=LINE('',#784,#345);
#300=LINE('',#787,#346);
#301=LINE('',#788,#347);
#302=LINE('',#790,#348);
#303=LINE('',#792,#349);
#304=LINE('',#794,#350);
#305=LINE('',#796,#351);
#306=LINE('',#798,#352);
#307=LINE('',#800,#353);
#308=LINE('',#803,#354);
#309=LINE('',#804,#355);
#310=LINE('',#806,#356);
#311=LINE('',#808,#357);
#312=LINE('',#850,#358);
#313=LINE('',#852,#359);
#314=VECTOR('',#573,1.);
#315=VECTOR('',#574,1.);
#316=VECTOR('',#575,1.);
#317=VECTOR('',#576,1.);
#318=VECTOR('',#579,1.);
#319=VECTOR('',#580,1.);
#320=VECTOR('',#581,1.);
#321=VECTOR('',#582,1.);
#322=VECTOR('',#583,1.);
#323=VECTOR('',#584,1.);
#324=VECTOR('',#585,1.);
#325=VECTOR('',#586,1.);
#326=VECTOR('',#587,1.);
#327=VECTOR('',#588,1.);
#328=VECTOR('',#589,1.);
#329=VECTOR('',#592,1.);
#330=VECTOR('',#593,1.);
#331=VECTOR('',#594,1.);
#332=VECTOR('',#597,1.);
#333=VECTOR('',#598,1.);
#334=VECTOR('',#599,1.);
#335=VECTOR('',#600,1.);
#336=VECTOR('',#601,1.);
#337=VECTOR('',#602,1.);
#338=VECTOR('',#603,1.);
#339=VECTOR('',#606,1.);
#340=VECTOR('',#607,1.);
#341=VECTOR('',#608,1.);
#342=VECTOR('',#609,1.);
#343=VECTOR('',#612,1.);
#344=VECTOR('',#613,1.);
#345=VECTOR('',#622,1.);
#346=VECTOR('',#623,1.);
#347=VECTOR('',#624,1.);
#348=VECTOR('',#627,1.);
#349=VECTOR('',#630,1.);
#350=VECTOR('',#631,1.);
#351=VECTOR('',#632,1.);
#352=VECTOR('',#635,1.);
#353=VECTOR('',#638,1.);
#354=VECTOR('',#639,1.);
#355=VECTOR('',#640,1.);
#356=VECTOR('',#643,1.);
#357=VECTOR('',#646,1.);
#358=VECTOR('',#707,1.);
#359=VECTOR('',#710,1.);
#360=EDGE_LOOP('',(#36,#37,#38,#39));
#361=EDGE_LOOP('',(#40,#41,#42,#43,#44,#45,#46,#47,#48,#49,#50,#51));
#362=EDGE_LOOP('',(#52,#53,#54,#55));
#363=EDGE_LOOP('',(#56,#57,#58,#59,#60,#61,#62,#63));
#364=EDGE_LOOP('',(#64,#65,#66,#67,#68,#69,#70,#71,#72,#73));
#365=EDGE_LOOP('',(#74));
#366=EDGE_LOOP('',(#75));
#367=EDGE_LOOP('',(#76));
#368=EDGE_LOOP('',(#77,#78,#79,#80));
#369=EDGE_LOOP('',(#81,#82,#83,#84));
#370=EDGE_LOOP('',(#85,#86,#87,#88));
#371=EDGE_LOOP('',(#89,#90,#91,#92));
#372=EDGE_LOOP('',(#93,#94,#95,#96,#97,#98,#99,#100));
#373=EDGE_LOOP('',(#101,#102,#103,#104));
#374=EDGE_LOOP('',(#105,#106,#107,#108));
#375=EDGE_LOOP('',(#109,#110,#111,#112));
#376=EDGE_LOOP('',(#113));
#377=EDGE_LOOP('',(#114));
#378=EDGE_LOOP('',(#115));
#379=EDGE_LOOP('',(#116));
#380=EDGE_LOOP('',(#117));
#381=EDGE_LOOP('',(#118));
#382=EDGE_LOOP('',(#119));
#383=EDGE_LOOP('',(#120));
#384=EDGE_LOOP('',(#121));
#385=EDGE_LOOP('',(#122));
#386=EDGE_LOOP('',(#123));
#387=EDGE_LOOP('',(#124));
#388=EDGE_LOOP('',(#125,#126,#127,#128));
#389=EDGE_LOOP('',(#129));
#390=EDGE_LOOP('',(#130,#131));
#391=EDGE_LOOP('',(#132));
#392=EDGE_LOOP('',(#133));
#393=EDGE_LOOP('',(#134));
#394=EDGE_LOOP('',(#135));
#395=EDGE_LOOP('',(#136));
#396=EDGE_LOOP('',(#137));
#397=EDGE_LOOP('',(#138));
#398=EDGE_LOOP('',(#139));
#399=EDGE_LOOP('',(#140));
#400=EDGE_LOOP('',(#141));
#401=EDGE_LOOP('',(#142));
#402=EDGE_LOOP('',(#143));
#403=EDGE_LOOP('',(#144,#145,#146,#147,#148,#149));
#404=EDGE_LOOP('',(#150,#151,#152,#153,#154,#155));
#405=EDGE_LOOP('',(#156,#157,#158,#159));
#406=FACE_BOUND('',#360,.T.);
#407=FACE_BOUND('',#361,.T.);
#408=FACE_BOUND('',#362,.T.);
#409=FACE_BOUND('',#363,.T.);
#410=FACE_BOUND('',#364,.T.);
#411=FACE_BOUND('',#365,.T.);
#412=FACE_BOUND('',#366,.T.);
#413=FACE_BOUND('',#367,.T.);
#414=FACE_BOUND('',#368,.T.);
#415=FACE_BOUND('',#369,.T.);
#416=FACE_BOUND('',#370,.T.);
#417=FACE_BOUND('',#371,.T.);
#418=FACE_BOUND('',#372,.T.);
#419=FACE_BOUND('',#373,.T.);
#420=FACE_BOUND('',#374,.T.);
#421=FACE_BOUND('',#375,.T.);
#422=FACE_BOUND('',#376,.T.);
#423=FACE_BOUND('',#377,.T.);
#424=FACE_BOUND('',#378,.T.);
#425=FACE_BOUND('',#379,.T.);
#426=FACE_BOUND('',#380,.T.);
#427=FACE_BOUND('',#381,.T.);
#428=FACE_BOUND('',#382,.T.);
#429=FACE_BOUND('',#383,.T.);
#430=FACE_BOUND('',#384,.T.);
#431=FACE_BOUND('',#385,.T.);
#432=FACE_BOUND('',#386,.T.);
#433=FACE_BOUND('',#387,.T.);
#434=FACE_BOUND('',#388,.T.);
#435=FACE_BOUND('',#389,.T.);
#436=FACE_BOUND('',#390,.T.);
#437=FACE_BOUND('',#391,.T.);
#438=FACE_BOUND('',#392,.T.);
#439=FACE_BOUND('',#393,.T.);
#440=FACE_BOUND('',#394,.T.);
#441=FACE_BOUND('',#395,.T.);
#442=FACE_BOUND('',#396,.T.);
#443=FACE_BOUND('',#397,.T.);
#444=FACE_BOUND('',#398,.T.);
#445=FACE_BOUND('',#399,.T.);
#446=FACE_BOUND('',#400,.T.);
#447=FACE_BOUND('',#401,.T.);
#448=FACE_BOUND('',#402,.T.);
#449=FACE_BOUND('',#403,.T.);
#450=FACE_BOUND('',#404,.T.);
#451=FACE_BOUND('',#405,.T.);
#452=PLANE('',#521);
#453=PLANE('',#522);
#454=PLANE('',#523);
#455=PLANE('',#524);
#456=PLANE('',#525);
#457=PLANE('',#530);
#458=PLANE('',#531);
#459=PLANE('',#532);
#460=PLANE('',#533);
#461=PLANE('',#534);
#462=PLANE('',#535);
#463=PLANE('',#536);
#464=PLANE('',#537);
#465=PLANE('',#540);
#466=PLANE('',#544);
#467=PLANE('',#548);
#468=PLANE('',#552);
#469=PLANE('',#556);
#470=PLANE('',#559);
#471=PLANE('',#562);
#472=PLANE('',#565);
#473=PLANE('',#566);
#474=PLANE('',#567);
#475=PLANE('',#568);
#476=ADVANCED_FACE('',(#406),#452,.F.);
#477=ADVANCED_FACE('',(#407),#453,.T.);
#478=ADVANCED_FACE('',(#408),#454,.F.);
#479=ADVANCED_FACE('',(#409),#455,.T.);
#480=ADVANCED_FACE('',(#410,#411,#412,#413),#456,.T.);
#481=ADVANCED_FACE('',(#414),#457,.T.);
#482=ADVANCED_FACE('',(#415),#458,.F.);
#483=ADVANCED_FACE('',(#416),#459,.F.);
#484=ADVANCED_FACE('',(#417),#460,.T.);
#485=ADVANCED_FACE('',(#418),#461,.F.);
#486=ADVANCED_FACE('',(#419),#462,.F.);
#487=ADVANCED_FACE('',(#420),#463,.F.);
#488=ADVANCED_FACE('',(#421),#464,.T.);
#489=ADVANCED_FACE('',(#422,#423),#12,.T.);
#490=ADVANCED_FACE('',(#424,#425),#465,.T.);
#491=ADVANCED_FACE('',(#426,#427),#13,.T.);
#492=ADVANCED_FACE('',(#428,#429),#466,.T.);
#493=ADVANCED_FACE('',(#430,#431),#14,.T.);
#494=ADVANCED_FACE('',(#432,#433),#467,.T.);
#495=ADVANCED_FACE('',(#434),#15,.T.);
#496=ADVANCED_FACE('',(#435,#436),#468,.T.);
#497=ADVANCED_FACE('',(#437,#438),#16,.F.);
#498=ADVANCED_FACE('',(#439),#469,.T.);
#499=ADVANCED_FACE('',(#440,#441),#17,.F.);
#500=ADVANCED_FACE('',(#442),#470,.T.);
#501=ADVANCED_FACE('',(#443,#444),#18,.F.);
#502=ADVANCED_FACE('',(#445),#471,.T.);
#503=ADVANCED_FACE('',(#446,#447),#19,.F.);
#504=ADVANCED_FACE('',(#448),#472,.T.);
#505=ADVANCED_FACE('',(#449),#473,.F.);
#506=ADVANCED_FACE('',(#450),#474,.T.);
#507=ADVANCED_FACE('',(#451),#475,.T.);
#508=CLOSED_SHELL('',(#476,#477,#478,#479,#480,#481,#482,#483,#484,#485,
#486,#487,#488,#489,#490,#491,#492,#493,#494,#495,#496,#497,#498,#499,#500,
#501,#502,#503,#504,#505,#506,#507));
#509=STYLED_ITEM('',(#510),#517);
#510=PRESENTATION_STYLE_ASSIGNMENT((#511));
#511=SURFACE_STYLE_USAGE(.BOTH.,#512);
#512=SURFACE_SIDE_STYLE('',(#513));
#513=SURFACE_STYLE_FILL_AREA(#514);
#514=FILL_AREA_STYLE('',(#515));
#515=FILL_AREA_STYLE_COLOUR('',#516);
#516=COLOUR_RGB('',0.615686274509804,0.811764705882353,0.929411764705882);
#517=MANIFOLD_SOLID_BREP('Part 1',#508);
#518=SHAPE_DEFINITION_REPRESENTATION(#860,#519);
#519=SHAPE_REPRESENTATION('Part 1',(#520),#855);
#520=AXIS2_PLACEMENT_3D('',#713,#569,#570);
#521=AXIS2_PLACEMENT_3D('',#714,#571,#572);
#522=AXIS2_PLACEMENT_3D('',#723,#577,#578);
#523=AXIS2_PLACEMENT_3D('',#745,#590,#591);
#524=AXIS2_PLACEMENT_3D('',#751,#595,#596);
#525=AXIS2_PLACEMENT_3D('',#765,#604,#605);
#526=AXIS2_PLACEMENT_3D('',#773,#610,#611);
#527=AXIS2_PLACEMENT_3D('',#777,#614,#615);
#528=AXIS2_PLACEMENT_3D('',#779,#616,#617);
#529=AXIS2_PLACEMENT_3D('',#781,#618,#619);
#530=AXIS2_PLACEMENT_3D('',#783,#620,#621);
#531=AXIS2_PLACEMENT_3D('',#789,#625,#626);
#532=AXIS2_PLACEMENT_3D('',#791,#628,#629);
#533=AXIS2_PLACEMENT_3D('',#797,#633,#634);
#534=AXIS2_PLACEMENT_3D('',#799,#636,#637);
#535=AXIS2_PLACEMENT_3D('',#805,#641,#642);
#536=AXIS2_PLACEMENT_3D('',#807,#644,#645);
#537=AXIS2_PLACEMENT_3D('',#809,#647,#648);
#538=AXIS2_PLACEMENT_3D('',#810,#649,#650);
#539=AXIS2_PLACEMENT_3D('',#811,#651,#652);
#540=AXIS2_PLACEMENT_3D('',#813,#653,#654);
#541=AXIS2_PLACEMENT_3D('',#814,#655,#656);
#542=AXIS2_PLACEMENT_3D('',#816,#657,#658);
#543=AXIS2_PLACEMENT_3D('',#817,#659,#660);
#544=AXIS2_PLACEMENT_3D('',#819,#661,#662);
#545=AXIS2_PLACEMENT_3D('',#820,#663,#664);
#546=AXIS2_PLACEMENT_3D('',#822,#665,#666);
#547=AXIS2_PLACEMENT_3D('',#823,#667,#668);
#548=AXIS2_PLACEMENT_3D('',#825,#669,#670);
#549=AXIS2_PLACEMENT_3D('',#826,#671,#672);
#550=AXIS2_PLACEMENT_3D('',#828,#673,#674);
#551=AXIS2_PLACEMENT_3D('',#829,#675,#676);
#552=AXIS2_PLACEMENT_3D('',#830,#677,#678);
#553=AXIS2_PLACEMENT_3D('',#831,#679,#680);
#554=AXIS2_PLACEMENT_3D('',#833,#681,#682);
#555=AXIS2_PLACEMENT_3D('',#834,#683,#684);
#556=AXIS2_PLACEMENT_3D('',#836,#685,#686);
#557=AXIS2_PLACEMENT_3D('',#837,#687,#688);
#558=AXIS2_PLACEMENT_3D('',#838,#689,#690);
#559=AXIS2_PLACEMENT_3D('',#840,#691,#692);
#560=AXIS2_PLACEMENT_3D('',#841,#693,#694);
#561=AXIS2_PLACEMENT_3D('',#842,#695,#696);
#562=AXIS2_PLACEMENT_3D('',#844,#697,#698);
#563=AXIS2_PLACEMENT_3D('',#845,#699,#700);
#564=AXIS2_PLACEMENT_3D('',#846,#701,#702);
#565=AXIS2_PLACEMENT_3D('',#848,#703,#704);
#566=AXIS2_PLACEMENT_3D('',#849,#705,#706);
#567=AXIS2_PLACEMENT_3D('',#851,#708,#709);
#568=AXIS2_PLACEMENT_3D('',#853,#711,#712);
#569=DIRECTION('',(0.,0.,1.));
#570=DIRECTION('',(1.,0.,0.));
#571=DIRECTION('',(0.,1.,0.));
#572=DIRECTION('',(0.,0.,1.));
#573=DIRECTION('',(-2.16840434497101E-16,0.,-1.));
#574=DIRECTION('',(1.,0.,0.));
#575=DIRECTION('',(0.,0.,-1.));
#576=DIRECTION('',(1.,0.,0.));
#577=DIRECTION('',(0.,0.,1.));
#578=DIRECTION('',(1.,0.,0.));
#579=DIRECTION('',(1.,0.,0.));
#580=DIRECTION('',(0.,-1.,0.));
#581=DIRECTION('',(1.,0.,0.));
#582=DIRECTION('',(-1.7347234759768E-16,-1.,0.));
#583=DIRECTION('',(1.,0.,0.));
#584=DIRECTION('',(-1.7347234759768E-16,-1.,0.));
#585=DIRECTION('',(0.,-1.,0.));
#586=DIRECTION('',(1.,0.,0.));
#587=DIRECTION('',(-1.87537673078573E-16,-1.,0.));
#588=DIRECTION('',(1.,0.,0.));
#589=DIRECTION('',(-1.87537673078573E-16,-1.,0.));
#590=DIRECTION('',(0.,-1.,0.));
#591=DIRECTION('',(0.,0.,-1.));
#592=DIRECTION('',(0.,0.,-1.));
#593=DIRECTION('',(0.,0.,1.));
#594=DIRECTION('',(1.,0.,0.));
#595=DIRECTION('',(0.,-1.,0.));
#596=DIRECTION('',(0.,0.,-1.));
#597=DIRECTION('',(1.,0.,0.));
#598=DIRECTION('',(0.,0.,-1.));
#599=DIRECTION('',(-1.,0.,0.));
#600=DIRECTION('',(0.,0.,-1.));
#601=DIRECTION('',(1.,0.,0.));
#602=DIRECTION('',(0.,0.,1.));
#603=DIRECTION('',(0.,0.,1.));
#604=DIRECTION('',(0.,0.,1.));
#605=DIRECTION('',(1.,0.,0.));
#606=DIRECTION('',(0.,-1.,0.));
#607=DIRECTION('',(1.,0.,0.));
#608=DIRECTION('',(0.,-1.,0.));
#609=DIRECTION('',(-1.87537673078573E-16,-1.,0.));
#610=DIRECTION('',(0.,0.,1.));
#611=DIRECTION('',(1.,0.,0.));
#612=DIRECTION('',(-1.87537673078573E-16,-1.,0.));
#613=DIRECTION('',(1.,0.,0.));
#614=DIRECTION('',(0.,0.,1.));
#615=DIRECTION('',(1.,0.,0.));
#616=DIRECTION('',(0.,0.,1.));
#617=DIRECTION('',(1.,0.,0.));
#618=DIRECTION('',(0.,0.,1.));
#619=DIRECTION('',(1.,0.,0.));
#620=DIRECTION('',(0.,1.,0.));
#621=DIRECTION('',(0.,0.,1.));
#622=DIRECTION('',(1.,0.,0.));
#623=DIRECTION('',(0.,0.,-1.));
#624=DIRECTION('',(0.,0.,-1.));
#625=DIRECTION('',(1.,-1.7347234759768E-16,0.));
#626=DIRECTION('',(1.7347234759768E-16,1.,0.));
#627=DIRECTION('',(-1.7347234759768E-16,-1.,0.));
#628=DIRECTION('',(0.,1.,0.));
#629=DIRECTION('',(0.,0.,1.));
#630=DIRECTION('',(0.,0.,-1.));
#631=DIRECTION('',(1.,0.,0.));
#632=DIRECTION('',(0.,0.,-1.));
#633=DIRECTION('',(1.,-1.7347234759768E-16,0.));
#634=DIRECTION('',(1.7347234759768E-16,1.,0.));
#635=DIRECTION('',(-1.7347234759768E-16,-1.,0.));
#636=DIRECTION('',(0.,0.,1.));
#637=DIRECTION('',(1.,0.,0.));
#638=DIRECTION('',(1.,0.,0.));
#639=DIRECTION('',(0.,-1.,0.));
#640=DIRECTION('',(0.,-1.,0.));
#641=DIRECTION('',(-1.,1.87537673078573E-16,0.));
#642=DIRECTION('',(-1.87537673078573E-16,-1.,0.));
#643=DIRECTION('',(0.,0.,1.));
#644=DIRECTION('',(0.,-1.,0.));
#645=DIRECTION('',(0.,0.,-1.));
#646=DIRECTION('',(-2.16840434497101E-16,0.,-1.));
#647=DIRECTION('',(-1.,1.87537673078573E-16,0.));
#648=DIRECTION('',(-1.87537673078573E-16,-1.,0.));
#649=DIRECTION('',(0.,0.,-1.));
#650=DIRECTION('',(-1.,0.,0.));
#651=DIRECTION('',(0.,0.,1.));
#652=DIRECTION('',(1.,0.,0.));
#653=DIRECTION('',(0.,0.,1.));
#654=DIRECTION('',(1.,0.,0.));
#655=DIRECTION('',(0.,0.,1.));
#656=DIRECTION('',(1.,0.,0.));
#657=DIRECTION('',(0.,0.,-1.));
#658=DIRECTION('',(-1.,0.,0.));
#659=DIRECTION('',(0.,0.,1.));
#660=DIRECTION('',(1.,0.,0.));
#661=DIRECTION('',(0.,0.,1.));
#662=DIRECTION('',(1.,0.,0.));
#663=DIRECTION('',(0.,0.,1.));
#664=DIRECTION('',(1.,0.,0.));
#665=DIRECTION('',(0.,0.,-1.));
#666=DIRECTION('',(-1.,0.,0.));
#667=DIRECTION('',(0.,0.,1.));
#668=DIRECTION('',(1.,0.,0.));
#669=DIRECTION('',(0.,0.,1.));
#670=DIRECTION('',(1.,0.,0.));
#671=DIRECTION('',(0.,0.,1.));
#672=DIRECTION('',(1.,0.,0.));
#673=DIRECTION('',(0.,0.,-1.));
#674=DIRECTION('',(-1.,0.,0.));
#675=DIRECTION('',(0.,0.,1.));
#676=DIRECTION('',(1.,0.,0.));
#677=DIRECTION('',(0.,0.,1.));
#678=DIRECTION('',(1.,0.,0.));
#679=DIRECTION('',(0.,0.,1.));
#680=DIRECTION('',(1.,0.,0.));
#681=DIRECTION('',(0.,0.,1.));
#682=DIRECTION('',(1.,0.,0.));
#683=DIRECTION('',(0.,0.,1.));
#684=DIRECTION('',(1.,0.,0.));
#685=DIRECTION('',(0.,0.,1.));
#686=DIRECTION('',(1.,0.,0.));
#687=DIRECTION('',(0.,0.,1.));
#688=DIRECTION('',(1.,0.,0.));
#689=DIRECTION('',(0.,0.,1.));
#690=DIRECTION('',(1.,0.,0.));
#691=DIRECTION('',(0.,0.,1.));
#692=DIRECTION('',(1.,0.,0.));
#693=DIRECTION('',(0.,0.,1.));
#694=DIRECTION('',(1.,0.,0.));
#695=DIRECTION('',(0.,0.,1.));
#696=DIRECTION('',(1.,0.,0.));
#697=DIRECTION('',(0.,0.,1.));
#698=DIRECTION('',(1.,0.,0.));
#699=DIRECTION('',(0.,0.,1.));
#700=DIRECTION('',(1.,0.,0.));
#701=DIRECTION('',(0.,0.,1.));
#702=DIRECTION('',(1.,0.,0.));
#703=DIRECTION('',(0.,0.,1.));
#704=DIRECTION('',(1.,0.,0.));
#705=DIRECTION('',(-1.,0.,2.16840434497101E-16));
#706=DIRECTION('',(2.16840434497101E-16,0.,1.));
#707=DIRECTION('',(-2.16840434497101E-16,0.,-1.));
#708=DIRECTION('',(-1.,0.,0.));
#709=DIRECTION('',(0.,0.,1.));
#710=DIRECTION('',(0.,0.,-1.));
#711=DIRECTION('',(0.,-1.,0.));
#712=DIRECTION('',(1.,0.,0.));
#713=CARTESIAN_POINT('',(0.,0.,0.));
#714=CARTESIAN_POINT('',(-6.93889390390723E-18,-0.04,0.008));
#715=CARTESIAN_POINT('',(0.0115,-0.04,0.004));
#716=CARTESIAN_POINT('',(0.0115,-0.04,0.008));
#717=CARTESIAN_POINT('',(0.0115,-0.04,3.46944695195361E-18));
#718=CARTESIAN_POINT('',(-6.93889390390723E-18,-0.04,0.008));
#719=CARTESIAN_POINT('',(-0.0405,-0.04,0.008));
#720=CARTESIAN_POINT('',(-0.0405,-0.04,0.008));
#721=CARTESIAN_POINT('',(-0.0405,-0.04,0.));
#722=CARTESIAN_POINT('',(-6.93889390390723E-18,-0.04,0.));
#723=CARTESIAN_POINT('',(0.,0.,0.008));
#724=CARTESIAN_POINT('',(-6.93889390390723E-18,-0.0377946283440106,0.008));
#725=CARTESIAN_POINT('',(0.0245,-0.0377946283440106,0.008));
#726=CARTESIAN_POINT('',(0.0375,-0.0377946283440106,0.008));
#727=CARTESIAN_POINT('',(0.0245,-0.037,0.008));
#728=CARTESIAN_POINT('',(0.0245,-0.04,0.008));
#729=CARTESIAN_POINT('',(-6.93889390390723E-18,-0.04,0.008));
#730=CARTESIAN_POINT('',(0.0405,-0.04,0.008));
#731=CARTESIAN_POINT('',(0.0405,0.,0.008));
#732=CARTESIAN_POINT('',(0.0405,0.04,0.008));
#733=CARTESIAN_POINT('',(6.93889390390723E-18,0.04,0.008));
#734=CARTESIAN_POINT('',(-0.0405,0.04,0.008));
#735=CARTESIAN_POINT('',(-0.0405,0.,0.008));
#736=CARTESIAN_POINT('',(0.0115,-0.037,0.008));
#737=CARTESIAN_POINT('',(0.0115,-0.0377946283440106,0.008));
#738=CARTESIAN_POINT('',(-6.93889390390723E-18,-0.0377946283440106,0.008));
#739=CARTESIAN_POINT('',(-0.0375,-0.0377946283440106,0.008));
#740=CARTESIAN_POINT('',(-0.0375,-0.000794628344010562,0.008));
#741=CARTESIAN_POINT('',(-0.0375,0.0362053716559895,0.008));
#742=CARTESIAN_POINT('',(6.93889390390723E-18,0.0362053716559895,0.008));
#743=CARTESIAN_POINT('',(0.0375,0.0362053716559895,0.008));
#744=CARTESIAN_POINT('',(0.0375,-0.000794628344010562,0.008));
#745=CARTESIAN_POINT('',(-6.93889390390723E-18,-0.0377946283440106,0.002));
#746=CARTESIAN_POINT('',(0.0245,-0.0377946283440106,0.002));
#747=CARTESIAN_POINT('',(0.0245,-0.0377946283440106,0.002));
#748=CARTESIAN_POINT('',(0.0375,-0.0377946283440106,0.002));
#749=CARTESIAN_POINT('',(0.0375,-0.0377946283440106,0.002));
#750=CARTESIAN_POINT('',(-6.93889390390723E-18,-0.0377946283440106,0.002));
#751=CARTESIAN_POINT('',(6.93889390390723E-18,0.0362053716559895,0.002));
#752=CARTESIAN_POINT('',(6.93889390390723E-18,0.0362053716559895,0.002));
#753=CARTESIAN_POINT('',(-0.0375,0.0362053716559895,0.002));
#754=CARTESIAN_POINT('',(-0.0340067252207985,0.0362053716559895,0.002));
#755=CARTESIAN_POINT('',(-0.0340067252207985,0.0362053716559895,0.005));
#756=CARTESIAN_POINT('',(-0.0340067252207985,0.0362053716559895,0.005));
#757=CARTESIAN_POINT('',(6.93889390390723E-18,0.0362053716559895,0.005));
#758=CARTESIAN_POINT('',(-0.0309932747792016,0.0362053716559895,0.005));
#759=CARTESIAN_POINT('',(-0.0309932747792016,0.0362053716559895,0.005));
#760=CARTESIAN_POINT('',(-0.0309932747792016,0.0362053716559895,0.002));
#761=CARTESIAN_POINT('',(6.93889390390723E-18,0.0362053716559895,0.002));
#762=CARTESIAN_POINT('',(0.0375,0.0362053716559895,0.002));
#763=CARTESIAN_POINT('',(0.0375,0.0362053716559895,0.002));
#764=CARTESIAN_POINT('',(-0.0375,0.0362053716559895,0.002));
#765=CARTESIAN_POINT('',(0.,-0.000794628344010562,0.002));
#766=CARTESIAN_POINT('',(0.0115,-0.000794628344010562,0.002));
#767=CARTESIAN_POINT('',(0.0115,-0.037,0.002));
#768=CARTESIAN_POINT('',(0.0115,-0.0377946283440106,0.002));
#769=CARTESIAN_POINT('',(0.,-0.037,0.002));
#770=CARTESIAN_POINT('',(0.0245,-0.037,0.002));
#771=CARTESIAN_POINT('',(0.0245,-0.000794628344010562,0.002));
#772=CARTESIAN_POINT('',(0.0375,-0.000794628344010562,0.002));
#773=CARTESIAN_POINT('',(-0.0325,0.0325,0.002));
#774=CARTESIAN_POINT('',(-0.0375,-0.000794628344010562,0.002));
#775=CARTESIAN_POINT('',(-0.0375,-0.0377946283440106,0.002));
#776=CARTESIAN_POINT('',(-6.93889390390723E-18,-0.0377946283440106,0.002));
#777=CARTESIAN_POINT('',(0.0305,-0.032,0.002));
#778=CARTESIAN_POINT('',(0.0345,-0.032,0.002));
#779=CARTESIAN_POINT('',(-0.0325,-0.0315,0.002));
#780=CARTESIAN_POINT('',(-0.0285,-0.0315,0.002));
#781=CARTESIAN_POINT('',(0.0305,0.0316967429811727,0.002));
#782=CARTESIAN_POINT('',(0.0345,0.0316967429811727,0.002));
#783=CARTESIAN_POINT('',(6.93889390390723E-18,0.04,0.008));
#784=CARTESIAN_POINT('',(6.93889390390723E-18,0.04,0.));
#785=CARTESIAN_POINT('',(-0.0405,0.04,0.));
#786=CARTESIAN_POINT('',(0.0405,0.04,0.));
#787=CARTESIAN_POINT('',(-0.0405,0.04,0.008));
#788=CARTESIAN_POINT('',(0.0405,0.04,0.008));
#789=CARTESIAN_POINT('',(-0.0405,0.,0.008));
#790=CARTESIAN_POINT('',(-0.0405,0.,0.));
#791=CARTESIAN_POINT('',(-6.93889390390723E-18,-0.04,0.008));
#792=CARTESIAN_POINT('',(0.0245,-0.04,0.004));
#793=CARTESIAN_POINT('',(0.0245,-0.04,3.46944695195361E-18));
#794=CARTESIAN_POINT('',(-6.93889390390723E-18,-0.04,0.));
#795=CARTESIAN_POINT('',(0.0405,-0.04,0.));
#796=CARTESIAN_POINT('',(0.0405,-0.04,0.008));
#797=CARTESIAN_POINT('',(0.0405,0.,0.008));
#798=CARTESIAN_POINT('',(0.0405,0.,0.));
#799=CARTESIAN_POINT('',(0.,0.,0.));
#800=CARTESIAN_POINT('',(0.018,-0.037,3.46944695195361E-18));
#801=CARTESIAN_POINT('',(0.0115,-0.037,3.46944695195361E-18));
#802=CARTESIAN_POINT('',(0.0245,-0.037,3.46944695195361E-18));
#803=CARTESIAN_POINT('',(0.0115,-0.037,3.46944695195361E-18));
#804=CARTESIAN_POINT('',(0.0245,-0.037,3.46944695195361E-18));
#805=CARTESIAN_POINT('',(-0.0375,-0.000794628344010562,0.002));
#806=CARTESIAN_POINT('',(-0.0375,-0.0377946283440106,0.002));
#807=CARTESIAN_POINT('',(-6.93889390390723E-18,-0.0377946283440106,0.002));
#808=CARTESIAN_POINT('',(0.0115,-0.0377946283440106,0.002));
#809=CARTESIAN_POINT('',(0.0375,-0.000794628344010562,0.002));
#810=CARTESIAN_POINT('',(0.0305,-0.032,0.005));
#811=CARTESIAN_POINT('',(0.0305,-0.032,0.005));
#812=CARTESIAN_POINT('',(0.0345,-0.032,0.005));
#813=CARTESIAN_POINT('',(-0.001,0.00025,0.005));
#814=CARTESIAN_POINT('',(0.0305,-0.032,0.005));
#815=CARTESIAN_POINT('',(0.03285,-0.032,0.005));
#816=CARTESIAN_POINT('',(-0.0325,-0.0315,0.005));
#817=CARTESIAN_POINT('',(-0.0325,-0.0315,0.005));
#818=CARTESIAN_POINT('',(-0.0285,-0.0315,0.005));
#819=CARTESIAN_POINT('',(-0.001,0.00025,0.005));
#820=CARTESIAN_POINT('',(-0.0325,-0.0315,0.005));
#821=CARTESIAN_POINT('',(-0.03015,-0.0315,0.005));
#822=CARTESIAN_POINT('',(0.0305,0.0316967429811727,0.005));
#823=CARTESIAN_POINT('',(0.0305,0.0316967429811727,0.005));
#824=CARTESIAN_POINT('',(0.0345,0.0316967429811727,0.005));
#825=CARTESIAN_POINT('',(-0.001,0.00025,0.005));
#826=CARTESIAN_POINT('',(0.0305,0.0316967429811727,0.005));
#827=CARTESIAN_POINT('',(0.03285,0.0316967429811727,0.005));
#828=CARTESIAN_POINT('',(-0.0325,0.0325,0.005));
#829=CARTESIAN_POINT('',(-0.0325,0.0325,0.005));
#830=CARTESIAN_POINT('',(-0.001,0.00025,0.005));
#831=CARTESIAN_POINT('',(-0.0325,0.0325,0.005));
#832=CARTESIAN_POINT('',(-0.03015,0.0325,0.005));
#833=CARTESIAN_POINT('',(-0.0325,0.0325,0.001));
#834=CARTESIAN_POINT('',(-0.0325,0.0325,0.001));
#835=CARTESIAN_POINT('',(-0.03015,0.0325,0.001));
#836=CARTESIAN_POINT('',(-0.001,0.00025,0.001));
#837=CARTESIAN_POINT('',(0.0305,0.0316967429811727,0.001));
#838=CARTESIAN_POINT('',(0.0305,0.0316967429811727,0.001));
#839=CARTESIAN_POINT('',(0.03285,0.0316967429811727,0.001));
#840=CARTESIAN_POINT('',(-0.001,0.00025,0.001));
#841=CARTESIAN_POINT('',(-0.0325,-0.0315,0.001));
#842=CARTESIAN_POINT('',(-0.0325,-0.0315,0.001));
#843=CARTESIAN_POINT('',(-0.03015,-0.0315,0.001));
#844=CARTESIAN_POINT('',(-0.001,0.00025,0.001));
#845=CARTESIAN_POINT('',(0.0305,-0.032,0.001));
#846=CARTESIAN_POINT('',(0.0305,-0.032,0.001));
#847=CARTESIAN_POINT('',(0.03285,-0.032,0.001));
#848=CARTESIAN_POINT('',(-0.001,0.00025,0.001));
#849=CARTESIAN_POINT('',(0.0115,-0.037,0.004));
#850=CARTESIAN_POINT('',(0.0115,-0.037,0.004));
#851=CARTESIAN_POINT('',(0.0245,-0.037,0.004));
#852=CARTESIAN_POINT('',(0.0245,-0.037,0.004));
#853=CARTESIAN_POINT('',(0.018,-0.037,0.004));
#854=MECHANICAL_DESIGN_GEOMETRIC_PRESENTATION_REPRESENTATION('',(#509),
#855);
#855=(
GEOMETRIC_REPRESENTATION_CONTEXT(3)
GLOBAL_UNCERTAINTY_ASSIGNED_CONTEXT((#856))
GLOBAL_UNIT_ASSIGNED_CONTEXT((#859,#858,#857))
REPRESENTATION_CONTEXT('Part 1','TOP_LEVEL_ASSEMBLY_PART')
);
#856=UNCERTAINTY_MEASURE_WITH_UNIT(LENGTH_MEASURE(1.E-8),#859,
'DISTANCE_ACCURACY_VALUE','Maximum Tolerance applied to model');
#857=(
NAMED_UNIT(*)
SI_UNIT($,.STERADIAN.)
SOLID_ANGLE_UNIT()
);
#858=(
NAMED_UNIT(*)
PLANE_ANGLE_UNIT()
SI_UNIT($,.RADIAN.)
);
#859=(
LENGTH_UNIT()
NAMED_UNIT(*)
SI_UNIT($,.METRE.)
);
#860=PRODUCT_DEFINITION_SHAPE('','',#861);
#861=PRODUCT_DEFINITION('','',#863,#862);
#862=PRODUCT_DEFINITION_CONTEXT('',#869,'design');
#863=PRODUCT_DEFINITION_FORMATION_WITH_SPECIFIED_SOURCE('','',#865,
 .NOT_KNOWN.);
#864=PRODUCT_RELATED_PRODUCT_CATEGORY('','',(#865));
#865=PRODUCT('Part 1','Part 1','Part 1',(#867));
#866=PRODUCT_CATEGORY('','');
#867=PRODUCT_CONTEXT('',#869,'mechanical');
#868=APPLICATION_PROTOCOL_DEFINITION('international standard',
'ap242_managed_model_based_3d_engineering',2020,#869);
#869=APPLICATION_CONTEXT('managed model based 3d engineering');
ENDSEC;
END-ISO-10303-21;
